<?xml version="1.0" encoding="UTF-8"?><svg xmlns="http://www.w3.org/2000/svg" xmlns:xlink="http://www.w3.org/1999/xlink" fill-opacity="1" color-rendering="auto" color-interpolation="auto" text-rendering="auto" stroke="black" stroke-linecap="square" width="1476" stroke-miterlimit="10" shape-rendering="auto" stroke-opacity="1" fill="black" stroke-dasharray="none" font-weight="normal" stroke-width="1" height="804" font-family="'Dialog'" font-style="normal" stroke-linejoin="miter" font-size="12px" stroke-dashoffset="0" image-rendering="auto">
  <!--Generated by ySVG 2.6-->
  <defs id="genericDefs"/>
  <g>
    <g fill="white" text-rendering="geometricPrecision" shape-rendering="geometricPrecision" transform="translate(178,164)" stroke="white">
      <rect x="-178" width="1476" height="804" y="-164" clip-path="url(#clipPath2)" stroke="none"/>
    </g>
    <g text-rendering="geometricPrecision" shape-rendering="geometricPrecision" transform="matrix(1.3926,0,0,1.4493,140.0587,6.1305)">
      <g clip-path="url(#clipPath3)">
        <svg opacity="1" writing-mode="lr-tb" data-diagram-type="CLASS" stop-color="rgb(0, 0, 0)" shape-rendering="auto" glyph-orientation-horizontal="0deg" color-profile="auto" lighting-color="rgb(255, 255, 255)" contentStyleType="text/css" color="rgb(0, 0, 0)" font-weight="400" alignment-baseline="auto" font-style="normal" version="1.1" color-interpolation-filters="linearrgb" text-anchor="start" stroke-linecap="butt" color-interpolation="srgb" font-variant="normal" word-spacing="normal" fill-opacity="1" text-rendering="auto" clip-path="none" text-decoration="none" letter-spacing="normal" viewBox="0 0 842 442" glyph-orientation-vertical="auto" display="inline" font-size-adjust="none" overflow="hidden" fill="rgb(0, 0, 0)" font-stretch="normal" stroke-dasharray="none" stroke-miterlimit="4" stop-opacity="1" color-rendering="auto" font-size="12" pointer-events="visiblepainted" mask="none" direction="ltr" baseline-shift="baseline" enable-background="accumulate" fill-rule="nonzero" zoomAndPan="magnify" image-rendering="auto" stroke-dashoffset="0" style="width:842px;height:442px;background:#FFFFFF;" width="842px" marker-end="none" clip="auto" cursor="auto" stroke="none" filter="none" visibility="visible" kerning="auto" stroke-width="1" font-family="&quot;Arial&quot;,&quot;Helvetica&quot;,sans-serif" preserveAspectRatio="none" flood-opacity="1" clip-rule="nonzero" src="none" height="442px" unicode-bidi="normal" stroke-linejoin="miter" stroke-opacity="1" flood-color="rgb(0, 0, 0)" dominant-baseline="auto" marker-start="none" marker-mid="none">
          <defs>
            <clipPath clipPathUnits="userSpaceOnUse" id="clipPath1">
              <path d="M0 0 L1476 0 L1476 804 L0 804 L0 0 Z"/>
            </clipPath>
            <clipPath clipPathUnits="userSpaceOnUse" id="clipPath2">
              <path d="M-178 -164 L1298 -164 L1298 640 L-178 640 L-178 -164 Z"/>
            </clipPath>
            <clipPath clipPathUnits="userSpaceOnUse" id="clipPath3">
              <path d="M-100.5767 -4.2301 L959.3439 -4.2301 L959.3439 550.5327 L-100.5767 550.5327 L-100.5767 -4.2301 Z"/>
            </clipPath>
            <clipPath clipPathUnits="userSpaceOnUse" id="clipPath4">
              <path d="M-10.4375 -583.89 L1465.5625 -583.89 L1465.5625 220.11 L-10.4375 220.11 L-10.4375 -583.89 Z"/>
            </clipPath>
          </defs>
          <g>
            <!--class Task-->
            <g data-source-line="3" id="svg1.entity_Task" data-entity="Task" class="entity" data-uid="ent0002">
              <rect x="7" y="246.08" fill="#F1F1F1" width="142.9971" style="stroke:#181818;stroke-width:0.5;" rx="2.5" height="80.5938" ry="2.5"/>
              <ellipse rx="11" fill="#ADD1B2" ry="11" style="stroke:#181818;stroke-width:1;" cx="57.9824" cy="262.08"/>
              <path fill="#000000" d="M60.9512,267.7206 Q60.373,268.0175 59.7324,268.1581 Q59.0918,268.3144 58.3887,268.3144 Q55.8887,268.3144 54.5605,266.6738 Q53.248,265.0175 53.248,261.8925 Q53.248,258.7675 54.5605,257.1113 Q55.8887,255.455 58.3887,255.455 Q59.0918,255.455 59.7324,255.6113 Q60.3887,255.7675 60.9512,256.0644 L60.9512,258.7831 Q60.3262,258.205 59.7324,257.9394 Q59.1387,257.6581 58.5137,257.6581 Q57.1699,257.6581 56.4824,258.7363 Q55.7949,259.7988 55.7949,261.8925 Q55.7949,263.9863 56.4824,265.0644 Q57.1699,266.1269 58.5137,266.1269 Q59.1387,266.1269 59.7324,265.8613 Q60.3262,265.58 60.9512,265.0019 L60.9512,267.7206 Z "/>
              <text x="78.4824" font-size="14" y="266.9267" fill="#000000" font-family="sans-serif" textLength="32.5322" lengthAdjust="spacing">Task</text>
              <line y2="278.08" style="stroke:#181818;stroke-width:0.5;" x1="8" x2="148.9971" y1="278.08"/>
              <ellipse rx="3" fill="none" ry="3" style="stroke:#038048;stroke-width:1;" cx="18" cy="291.7284"/>
              <text x="27" font-size="14" y="295.0751" fill="#000000" font-family="sans-serif" textLength="88.71" lengthAdjust="spacing">hasId: String</text>
              <ellipse rx="3" fill="none" ry="3" style="stroke:#038048;stroke-width:1;" cx="18" cy="308.0253"/>
              <text x="27" font-size="14" y="311.372" fill="#000000" font-family="sans-serif" textLength="116.9971" lengthAdjust="spacing">hasName: String</text>
              <line y2="318.6738" style="stroke:#181818;stroke-width:0.5;" x1="8" x2="148.9971" y1="318.6738"/>
            </g>
            <!--class Resource-->
            <g data-source-line="8" id="svg1.entity_Resource" data-entity="Resource" class="entity" data-uid="ent0003">
              <rect x="246" y="246.08" fill="#F1F1F1" width="142.9971" style="stroke:#181818;stroke-width:0.5;" rx="2.5" height="80.5938" ry="2.5"/>
              <ellipse rx="11" fill="#ADD1B2" ry="11" style="stroke:#181818;stroke-width:1;" cx="281.6358" cy="262.08"/>
              <path fill="#000000" d="M284.6046,267.7206 Q284.0265,268.0175 283.3858,268.1581 Q282.7452,268.3144 282.0421,268.3144 Q279.5421,268.3144 278.214,266.6738 Q276.9015,265.0175 276.9015,261.8925 Q276.9015,258.7675 278.214,257.1113 Q279.5421,255.455 282.0421,255.455 Q282.7452,255.455 283.3858,255.6113 Q284.0421,255.7675 284.6046,256.0644 L284.6046,258.7831 Q283.9796,258.205 283.3858,257.9394 Q282.7921,257.6581 282.1671,257.6581 Q280.8233,257.6581 280.1358,258.7363 Q279.4483,259.7988 279.4483,261.8925 Q279.4483,263.9863 280.1358,265.0644 Q280.8233,266.1269 282.1671,266.1269 Q282.7921,266.1269 283.3858,265.8613 Q283.9796,265.58 284.6046,265.0019 L284.6046,267.7206 Z "/>
              <text x="300.2216" font-size="14" y="266.9267" fill="#000000" font-family="sans-serif" textLength="65.1396" lengthAdjust="spacing">Resource</text>
              <line y2="278.08" style="stroke:#181818;stroke-width:0.5;" x1="247" x2="387.9971" y1="278.08"/>
              <ellipse rx="3" fill="none" ry="3" style="stroke:#038048;stroke-width:1;" cx="257" cy="291.7284"/>
              <text x="266" font-size="14" y="295.0751" fill="#000000" font-family="sans-serif" textLength="88.71" lengthAdjust="spacing">hasId: String</text>
              <ellipse rx="3" fill="none" ry="3" style="stroke:#038048;stroke-width:1;" cx="257" cy="308.0253"/>
              <text x="266" font-size="14" y="311.372" fill="#000000" font-family="sans-serif" textLength="116.9971" lengthAdjust="spacing">hasName: String</text>
              <line y2="318.6738" style="stroke:#181818;stroke-width:0.5;" x1="247" x2="387.9971" y1="318.6738"/>
            </g>
            <!--class CostItem-->
            <g data-source-line="13" id="svg1.entity_CostItem" data-entity="CostItem" class="entity" data-uid="ent0004">
              <rect x="349.04" y="7" fill="#F1F1F1" width="204.917" style="stroke:#181818;stroke-width:0.5;" rx="2.5" height="162.0781" ry="2.5"/>
              <ellipse rx="11" fill="#ADD1B2" ry="11" style="stroke:#181818;stroke-width:1;" cx="415.7519" cy="23"/>
              <path fill="#000000" d="M418.7207,28.6406 Q418.1425,28.9375 417.5019,29.0781 Q416.8613,29.2344 416.1582,29.2344 Q413.6582,29.2344 412.33,27.5938 Q411.0175,25.9375 411.0175,22.8125 Q411.0175,19.6875 412.33,18.0313 Q413.6582,16.375 416.1582,16.375 Q416.8613,16.375 417.5019,16.5313 Q418.1582,16.6875 418.7207,16.9844 L418.7207,19.7031 Q418.0957,19.125 417.5019,18.8594 Q416.9082,18.5781 416.2832,18.5781 Q414.9394,18.5781 414.2519,19.6563 Q413.5644,20.7188 413.5644,22.8125 Q413.5644,24.9063 414.2519,25.9844 Q414.9394,27.0469 416.2832,27.0469 Q416.9082,27.0469 417.5019,26.7813 Q418.0957,26.5 418.7207,25.9219 L418.7207,28.6406 Z "/>
              <text x="436.2519" font-size="14" y="27.8467" fill="#000000" font-family="sans-serif" textLength="62.9932" lengthAdjust="spacing">CostItem</text>
              <line y2="39" style="stroke:#181818;stroke-width:0.5;" x1="350.04" x2="552.957" y1="39"/>
              <ellipse rx="3" fill="none" ry="3" style="stroke:#038048;stroke-width:1;" cx="360.04" cy="52.6484"/>
              <text x="369.04" font-size="14" y="55.9951" fill="#000000" font-family="sans-serif" textLength="88.71" lengthAdjust="spacing">hasId: String</text>
              <ellipse rx="3" fill="none" ry="3" style="stroke:#038048;stroke-width:1;" cx="360.04" cy="68.9453"/>
              <text x="369.04" font-size="14" y="72.292" fill="#000000" font-family="sans-serif" textLength="116.9971" lengthAdjust="spacing">hasName: String</text>
              <ellipse rx="3" fill="none" ry="3" style="stroke:#038048;stroke-width:1;" cx="360.04" cy="85.2422"/>
              <text x="369.04" font-size="14" y="88.5889" fill="#000000" font-family="sans-serif" textLength="164.5137" lengthAdjust="spacing">budgetedCost: Decimal</text>
              <ellipse rx="3" fill="none" ry="3" style="stroke:#038048;stroke-width:1;" cx="360.04" cy="101.5391"/>
              <text x="369.04" font-size="14" y="104.8857" fill="#000000" font-family="sans-serif" textLength="140.4854" lengthAdjust="spacing">actualCost: Decimal</text>
              <ellipse rx="3" fill="none" ry="3" style="stroke:#038048;stroke-width:1;" cx="360.04" cy="117.8359"/>
              <text x="369.04" font-size="14" y="121.1826" fill="#000000" font-family="sans-serif" textLength="178.917" lengthAdjust="spacing">atCompleteCost: Decimal</text>
              <ellipse rx="3" fill="none" ry="3" style="stroke:#038048;stroke-width:1;" cx="360.04" cy="134.1328"/>
              <text x="369.04" font-size="14" y="137.4795" fill="#000000" font-family="sans-serif" textLength="112.499" lengthAdjust="spacing">currency: String</text>
              <ellipse rx="3" fill="none" ry="3" style="stroke:#038048;stroke-width:1;" cx="360.04" cy="150.4297"/>
              <text x="369.04" font-size="14" y="153.7764" fill="#000000" font-family="sans-serif" textLength="99.9277" lengthAdjust="spacing">vendor: String</text>
              <line y2="161.0781" style="stroke:#181818;stroke-width:0.5;" x1="350.04" x2="552.957" y1="161.0781"/>
            </g>
            <!--class CostCategory-->
            <g data-source-line="23" id="svg1.entity_CostCategory" data-entity="CostCategory" class="entity" data-uid="ent0005">
              <rect x="515" y="254.22" fill="#F1F1F1" width="142.9971" style="stroke:#181818;stroke-width:0.5;" rx="2.5" height="64.2969" ry="2.5"/>
              <ellipse rx="11" fill="#ADD1B2" ry="11" style="stroke:#181818;stroke-width:1;" cx="537.1653" cy="270.22"/>
              <path fill="#000000" d="M540.134,275.8606 Q539.5559,276.1575 538.9153,276.2981 Q538.2747,276.4544 537.5715,276.4544 Q535.0715,276.4544 533.7434,274.8138 Q532.4309,273.1575 532.4309,270.0325 Q532.4309,266.9075 533.7434,265.2513 Q535.0715,263.595 537.5715,263.595 Q538.2747,263.595 538.9153,263.7513 Q539.5715,263.9075 540.134,264.2044 L540.134,266.9231 Q539.509,266.345 538.9153,266.0794 Q538.3215,265.7981 537.6965,265.7981 Q536.3528,265.7981 535.6653,266.8763 Q534.9778,267.9388 534.9778,270.0325 Q534.9778,272.1263 535.6653,273.2044 Q536.3528,274.2669 537.6965,274.2669 Q538.3215,274.2669 538.9153,274.0013 Q539.509,273.72 540.134,273.1419 L540.134,275.8606 Z "/>
              <text x="552.7576" font-size="14" y="275.0667" fill="#000000" font-family="sans-serif" textLength="95.0742" lengthAdjust="spacing">CostCategory</text>
              <line y2="286.22" style="stroke:#181818;stroke-width:0.5;" x1="516" x2="656.9971" y1="286.22"/>
              <ellipse rx="3" fill="none" ry="3" style="stroke:#038048;stroke-width:1;" cx="526" cy="299.8684"/>
              <text x="535" font-size="14" y="303.2151" fill="#000000" font-family="sans-serif" textLength="116.9971" lengthAdjust="spacing">hasName: String</text>
              <line y2="310.5169" style="stroke:#181818;stroke-width:0.5;" x1="516" x2="656.9971" y1="310.5169"/>
            </g>
            <!--class CostType-->
            <g data-source-line="27" id="svg1.entity_CostType" data-entity="CostType" class="entity" data-uid="ent0006">
              <rect x="693" y="254.22" fill="#F1F1F1" width="142.9971" style="stroke:#181818;stroke-width:0.5;" rx="2.5" height="64.2969" ry="2.5"/>
              <ellipse rx="11" fill="#ADD1B2" ry="11" style="stroke:#181818;stroke-width:1;" cx="728.4913" cy="270.22"/>
              <path fill="#000000" d="M731.46,275.8606 Q730.8819,276.1575 730.2413,276.2981 Q729.6006,276.4544 728.8975,276.4544 Q726.3975,276.4544 725.0694,274.8138 Q723.7569,273.1575 723.7569,270.0325 Q723.7569,266.9075 725.0694,265.2513 Q726.3975,263.595 728.8975,263.595 Q729.6006,263.595 730.2413,263.7513 Q730.8975,263.9075 731.46,264.2044 L731.46,266.9231 Q730.835,266.345 730.2413,266.0794 Q729.6475,265.7981 729.0225,265.7981 Q727.6788,265.7981 726.9913,266.8763 Q726.3038,267.9388 726.3038,270.0325 Q726.3038,272.1263 726.9913,273.2044 Q727.6788,274.2669 729.0225,274.2669 Q729.6475,274.2669 730.2413,274.0013 Q730.835,273.72 731.46,273.1419 L731.46,275.8606 Z "/>
              <text x="747.0449" font-size="14" y="275.0667" fill="#000000" font-family="sans-serif" textLength="65.4609" lengthAdjust="spacing">CostType</text>
              <line y2="286.22" style="stroke:#181818;stroke-width:0.5;" x1="694" x2="834.9971" y1="286.22"/>
              <ellipse rx="3" fill="none" ry="3" style="stroke:#038048;stroke-width:1;" cx="704" cy="299.8684"/>
              <text x="713" font-size="14" y="303.2151" fill="#000000" font-family="sans-serif" textLength="116.9971" lengthAdjust="spacing">hasName: String</text>
              <line y2="310.5169" style="stroke:#181818;stroke-width:0.5;" x1="694" x2="834.9971" y1="310.5169"/>
            </g>
            <!--class EquipmentCost-->
            <g data-source-line="31" id="svg1.entity_EquipmentCost" data-entity="EquipmentCost" class="entity" data-uid="ent0007">
              <rect x="694.94" y="387.67" fill="#F1F1F1" width="139.1191" style="stroke:#181818;stroke-width:0.5;" rx="2.5" height="48" ry="2.5"/>
              <ellipse rx="11" fill="#ADD1B2" ry="11" style="stroke:#181818;stroke-width:1;" cx="709.94" cy="403.67"/>
              <path fill="#000000" d="M712.9088,409.3106 Q712.3306,409.6075 711.69,409.7481 Q711.0494,409.9044 710.3463,409.9044 Q707.8463,409.9044 706.5181,408.2638 Q705.2056,406.6075 705.2056,403.4825 Q705.2056,400.3575 706.5181,398.7013 Q707.8463,397.045 710.3463,397.045 Q711.0494,397.045 711.69,397.2013 Q712.3463,397.3575 712.9088,397.6544 L712.9088,400.3731 Q712.2838,399.795 711.69,399.5294 Q711.0963,399.2481 710.4713,399.2481 Q709.1275,399.2481 708.44,400.3263 Q707.7525,401.3888 707.7525,403.4825 Q707.7525,405.5763 708.44,406.6544 Q709.1275,407.7169 710.4713,407.7169 Q711.0963,407.7169 711.69,407.4513 Q712.2838,407.17 712.9088,406.5919 L712.9088,409.3106 Z "/>
              <text x="723.94" font-size="14" y="408.5167" fill="#000000" font-family="sans-serif" textLength="107.1191" lengthAdjust="spacing">EquipmentCost</text>
              <line y2="419.67" style="stroke:#181818;stroke-width:0.5;" x1="695.94" x2="833.0591" y1="419.67"/>
              <line y2="427.67" style="stroke:#181818;stroke-width:0.5;" x1="695.94" x2="833.0591" y1="427.67"/>
            </g>
            <!--link CostType to EquipmentCost-->
            <g data-entity-1="CostType" data-source-line="35" data-entity-2="EquipmentCost" id="svg1.link_CostType_EquipmentCost" class="link" data-uid="lnk8">
              <path fill="none" id="svg1.CostType-to-EquipmentCost" d="M764.5,318.81 C764.5,340.21 764.5,350.07 764.5,369.47" codeLine="35" style="stroke:#181818;stroke-width:1;"/>
              <polygon fill="none" style="stroke:#181818;stroke-width:1;" points="764.5,387.47,770.5,369.47,758.5,369.47,764.5,387.47"/>
            </g>
            <!--link CostItem to CostCategory-->
            <g data-entity-1="CostItem" data-source-line="38" data-entity-2="CostCategory" id="svg1.link_CostItem_CostCategory" class="link" data-uid="lnk9">
              <path fill="none" id="svg1.CostItem-CostCategory" d="M526.35,169.57 C533.9,179.21 541.13,189.16 547.5,199.08 C558.52,216.23 568.01,237.01 574.87,253.88" codeLine="38" style="stroke:#181818;stroke-width:1;"/>
              <text x="558.5" font-size="13" y="212.1469" fill="#000000" font-family="sans-serif" textLength="111.2617" lengthAdjust="spacing">hasCostCategory</text>
              <text x="524.2286" font-size="13" y="189.0153" fill="#000000" font-family="sans-serif" textLength="8.271" lengthAdjust="spacing">1</text>
              <text x="563.8198" font-size="13" y="243.0872" fill="#000000" font-family="sans-serif" textLength="8.271" lengthAdjust="spacing">1</text>
            </g>
            <!--link CostItem to CostType-->
            <g data-entity-1="CostItem" data-source-line="39" data-entity-2="CostType" id="svg1.link_CostItem_CostType" class="link" data-uid="lnk10">
              <path fill="none" id="svg1.CostItem-CostType" d="M554.18,129.96 C594.64,148.3 640.43,171.94 678.5,199.08 C700.55,214.79 722.05,236.36 738.03,254.01" codeLine="39" style="stroke:#181818;stroke-width:1;"/>
              <text x="700.5" font-size="13" y="212.1469" fill="#000000" font-family="sans-serif" textLength="83.7637" lengthAdjust="spacing">hasCostType</text>
              <text x="562.0244" font-size="13" y="129.5596" fill="#000000" font-family="sans-serif" textLength="8.271" lengthAdjust="spacing">1</text>
              <text x="724.0582" font-size="13" y="243.2428" fill="#000000" font-family="sans-serif" textLength="8.271" lengthAdjust="spacing">1</text>
            </g>
            <!--link CostItem to Task-->
            <g data-entity-1="CostItem" data-source-line="40" data-entity-2="Task" id="svg1.link_CostItem_Task" class="link" data-uid="lnk11">
              <path fill="none" id="svg1.CostItem-Task" d="M348.55,96.02 C271.15,106.66 167.78,133.21 103.5,199.08 C91.41,211.47 85.1,229.34 81.83,245.6" codeLine="40" style="stroke:#181818;stroke-width:1;"/>
              <text x="104.5" font-size="13" y="212.1469" fill="#000000" font-family="sans-serif" textLength="197.647" lengthAdjust="spacing">costItemIsAssociatedWithTask</text>
              <text x="316.1381" font-size="13" y="93.1271" fill="#000000" font-family="sans-serif" textLength="24.8066" lengthAdjust="spacing">0..1</text>
              <text x="56.5127" font-size="13" y="234.9834" fill="#000000" font-family="sans-serif" textLength="24.8066" lengthAdjust="spacing">0..1</text>
            </g>
            <!--link CostItem to Resource-->
            <g data-entity-1="CostItem" data-source-line="41" data-entity-2="Resource" id="svg1.link_CostItem_Resource" class="link" data-uid="lnk12">
              <path fill="none" id="svg1.CostItem-Resource" d="M348.8,153.46 C334.93,166.77 322.68,182.02 314.5,199.08 C307.63,213.41 306.96,230.66 308.54,245.97" codeLine="41" style="stroke:#181818;stroke-width:1;"/>
              <text x="315.5" font-size="13" y="212.1469" fill="#000000" font-family="sans-serif" textLength="227.9253" lengthAdjust="spacing">costItemIsAssociatedWithResource</text>
              <text x="316.4064" font-size="13" y="154.7853" fill="#000000" font-family="sans-serif" textLength="24.8066" lengthAdjust="spacing">0..1</text>
              <text x="281.1355" font-size="13" y="235.1133" fill="#000000" font-family="sans-serif" textLength="24.8066" lengthAdjust="spacing">0..1</text>
            </g>
            <!--SRC=[bP9DJyGW48Rl_HLaBtimkz5havgOkeTUFEWcdX4cBR50PGQJHltl0hQacxL-d81ttcSOPjYoggfOtND4mBWl2X4FxCZncRqLZ5rq71jPiWToohIJSCSrPEbZPku1hNS2_ilL5gaXq7_aWlJaPGi4Cf8bkmMXDEzZW0lol3-NgRPww0Do5XBUEJ1YNAP_1IEj-xxGcXEqresvsFKt7SS1Vh4TNhmQD1YA_k0DWMqQIMCwS8gu2UsCOydvThltwrDiHcuGhL2Sb3MOcTJNpTKcS6avUKB9Gc5BPHL9LsTxF2sib_lzvFxQfRzJCZ4P6fmh0_ceg8lX7-ZyYzOpp9PF]-->
          </g>
        </svg>
      </g>
    </g>
    <g text-rendering="geometricPrecision" shape-rendering="geometricPrecision" transform="matrix(1,0,0,1,10.4375,583.89)">
      <g clip-path="url(#clipPath4)">
        <svg opacity="1" writing-mode="lr-tb" data-diagram-type="CLASS" stop-color="rgb(0, 0, 0)" shape-rendering="auto" glyph-orientation-horizontal="0deg" color-profile="auto" lighting-color="rgb(255, 255, 255)" contentStyleType="text/css" color="rgb(0, 0, 0)" font-weight="400" alignment-baseline="auto" font-style="normal" version="1.1" color-interpolation-filters="linearrgb" text-anchor="start" stroke-linecap="butt" color-interpolation="srgb" font-variant="normal" word-spacing="normal" fill-opacity="1" text-rendering="auto" clip-path="none" text-decoration="none" letter-spacing="normal" viewBox="0 0 1456 202" glyph-orientation-vertical="auto" display="inline" font-size-adjust="none" overflow="hidden" fill="rgb(0, 0, 0)" font-stretch="normal" stroke-dasharray="none" stroke-miterlimit="4" stop-opacity="1" color-rendering="auto" font-size="12" pointer-events="visiblepainted" mask="none" direction="ltr" baseline-shift="baseline" enable-background="accumulate" fill-rule="nonzero" zoomAndPan="magnify" image-rendering="auto" stroke-dashoffset="0" style="width:1456px;height:202px;background:#FFFFFF;" width="1456px" marker-end="none" clip="auto" cursor="auto" stroke="none" filter="none" visibility="visible" kerning="auto" stroke-width="1" font-family="&quot;Arial&quot;,&quot;Helvetica&quot;,sans-serif" preserveAspectRatio="none" flood-opacity="1" clip-rule="nonzero" src="none" height="202px" unicode-bidi="normal" stroke-linejoin="miter" stroke-opacity="1" flood-color="rgb(0, 0, 0)" dominant-baseline="auto" marker-start="none" marker-mid="none">
          <defs/>
          <g>
            <!--cluster Legend-->
            <g data-source-line="3" id="svg2.cluster_Legend" data-entity="Legend" class="cluster" data-uid="ent0002">
              <path fill="none" style="stroke:#000000;stroke-width:1.5;" d="M8.5,80.16 L67.4209,80.16 A3.75,3.75 0 0 1 69.9209,82.66 L76.9209,102.4569 L1446.5,102.4569 A2.5,2.5 0 0 1 1449,104.9569 L1449,192.96 A2.5,2.5 0 0 1 1446.5,195.46 L8.5,195.46 A2.5,2.5 0 0 1 6,192.96 L6,82.66 A2.5,2.5 0 0 1 8.5,80.16"/>
              <line y2="102.4569" style="stroke:#000000;stroke-width:1.5;" x1="6" x2="76.9209" y1="102.4569"/>
              <text x="10" font-size="14" y="95.1551" fill="#000000" font-family="sans-serif" font-weight="bold" textLength="57.9209" lengthAdjust="spacing">Legend</text>
            </g>
            <!--class CL-->
            <g data-source-line="4" id="svg2.entity_CL" data-entity="CL" class="entity" data-uid="ent0003">
              <rect x="21.72" y="115.16" fill="#F1F1F1" width="130.5693" style="stroke:#181818;stroke-width:0.5;" rx="2.5" height="64.2969" ry="2.5"/>
              <ellipse rx="11" fill="#ADD1B2" ry="11" style="stroke:#181818;stroke-width:1;" cx="64.5018" cy="131.16"/>
              <path fill="#000000" d="M67.4705,136.8006 Q66.8924,137.0975 66.2518,137.2381 Q65.6112,137.3944 64.908,137.3944 Q62.408,137.3944 61.0799,135.7538 Q59.7674,134.0975 59.7674,130.9725 Q59.7674,127.8475 61.0799,126.1913 Q62.408,124.535 64.908,124.535 Q65.6112,124.535 66.2518,124.6913 Q66.908,124.8475 67.4705,125.1444 L67.4705,127.8631 Q66.8455,127.285 66.2518,127.0194 Q65.658,126.7381 65.033,126.7381 Q63.6893,126.7381 63.0018,127.8163 Q62.3143,128.8788 62.3143,130.9725 Q62.3143,133.0663 63.0018,134.1444 Q63.6893,135.2069 65.033,135.2069 Q65.658,135.2069 66.2518,134.9413 Q66.8455,134.66 67.4705,134.0819 L67.4705,136.8006 Z "/>
              <text x="84.6755" font-size="14" y="136.0067" fill="#000000" font-family="sans-serif" textLength="36.832" lengthAdjust="spacing">Class</text>
              <line y2="147.16" style="stroke:#181818;stroke-width:0.5;" x1="22.72" x2="151.2893" y1="147.16"/>
              <ellipse rx="3" fill="none" ry="3" style="stroke:#038048;stroke-width:1;" cx="32.72" cy="160.8084"/>
              <text x="41.72" font-size="14" y="164.1551" fill="#000000" font-family="sans-serif" textLength="104.5693" lengthAdjust="spacing">attribute: Type</text>
              <line y2="171.4569" style="stroke:#181818;stroke-width:0.5;" x1="22.72" x2="151.2893" y1="171.4569"/>
            </g>
            <g data-source-line="6" id="svg2.entity_GMN4" data-entity="GMN4" class="entity" data-uid="ent0005">
              <path fill="#FEFFDD" style="stroke:#181818;stroke-width:0.5;" d="M429.55,119.61 L429.55,175.0084 L676.4567,175.0084 L676.4567,129.61 L666.4567,119.61 L429.55,119.61"/>
              <path fill="#FEFFDD" style="stroke:#181818;stroke-width:1;" d="M666.4567,119.61 L666.4567,129.61 L676.4567,129.61 L666.4567,119.61"/>
              <text x="435.55" font-size="13" y="136.6769" fill="#000000" font-family="sans-serif" textLength="178.5913" lengthAdjust="spacing">Rectangle with class name.</text>
              <text x="435.55" font-size="13" y="151.8097" fill="#000000" font-family="sans-serif" textLength="225.9067" lengthAdjust="spacing">Represents an entity in the model,</text>
              <text x="435.55" font-size="13" y="166.9425" fill="#000000" font-family="sans-serif" textLength="202.6299" lengthAdjust="spacing">e.g., Task, CostItem, Resource.</text>
            </g>
            <path fill="#FEFFDD" style="stroke:#181818;stroke-width:0.5;" d="M187.5,122.18 L187.5,138.3128 L146.2893,159.3084 L187.5,146.3128 L187.5,162.4456 A0,0 0 0 0 187.5,162.4456 L394.5054,162.4456 A0,0 0 0 0 394.5054,162.4456 L394.5054,132.18 L384.5054,122.18 L187.5,122.18 A0,0 0 0 0 187.5,122.18"/>
            <path fill="#FEFFDD" style="stroke:#181818;stroke-width:0.5;" d="M384.5054,122.18 L384.5054,132.18 L394.5054,132.18 L384.5054,122.18"/>
            <text x="193.5" font-size="13" y="139.2469" fill="#000000" font-family="sans-serif" textLength="186.0054" lengthAdjust="spacing">Attributes or data properties</text>
            <text x="193.5" font-size="13" y="154.3797" fill="#000000" font-family="sans-serif" textLength="78.5332" lengthAdjust="spacing">of the class.</text>
            <!--class Rel1-->
            <g data-source-line="18" id="svg2.entity_Rel1" data-entity="Rel1" class="entity" data-uid="ent0009">
              <rect x="711.04" y="123.31" fill="#F1F1F1" width="81.916" style="stroke:#181818;stroke-width:0.5;" rx="2.5" height="48" ry="2.5"/>
              <ellipse rx="11" fill="#ADD1B2" ry="11" style="stroke:#181818;stroke-width:1;" cx="726.04" cy="139.31"/>
              <path fill="#000000" d="M729.0088,144.9506 Q728.4306,145.2475 727.79,145.3881 Q727.1494,145.5444 726.4463,145.5444 Q723.9463,145.5444 722.6181,143.9038 Q721.3056,142.2475 721.3056,139.1225 Q721.3056,135.9975 722.6181,134.3413 Q723.9463,132.685 726.4463,132.685 Q727.1494,132.685 727.79,132.8413 Q728.4463,132.9975 729.0088,133.2944 L729.0088,136.0131 Q728.3838,135.435 727.79,135.1694 Q727.1963,134.8881 726.5713,134.8881 Q725.2275,134.8881 724.54,135.9663 Q723.8525,137.0288 723.8525,139.1225 Q723.8525,141.2163 724.54,142.2944 Q725.2275,143.3569 726.5713,143.3569 Q727.1963,143.3569 727.79,143.0913 Q728.3838,142.81 729.0088,142.2319 L729.0088,144.9506 Z "/>
              <text x="740.04" font-size="14" y="144.1567" fill="#000000" font-family="sans-serif" textLength="49.916" lengthAdjust="spacing">A --&gt; B</text>
              <line y2="155.31" style="stroke:#181818;stroke-width:0.5;" x1="712.04" x2="791.956" y1="155.31"/>
              <line y2="163.31" style="stroke:#181818;stroke-width:0.5;" x1="712.04" x2="791.956" y1="163.31"/>
            </g>
            <g data-source-line="20" id="svg2.entity_GMN10" data-entity="GMN10" class="entity" data-uid="ent0011">
              <path fill="#FEFFDD" style="stroke:#181818;stroke-width:0.5;" d="M827.76,119.61 L827.76,143.31 L793.13,147.31 L827.76,151.31 L827.76,175.0084 A0,0 0 0 0 827.76,175.0084 L1066.2497,175.0084 A0,0 0 0 0 1066.2497,175.0084 L1066.2497,129.61 L1056.2497,119.61 L827.76,119.61 A0,0 0 0 0 827.76,119.61"/>
              <path fill="#FEFFDD" style="stroke:#181818;stroke-width:0.5;" d="M1056.2497,119.61 L1056.2497,129.61 L1066.2497,129.61 L1056.2497,119.61"/>
              <text x="833.76" font-size="13" y="136.6769" fill="#000000" font-family="sans-serif" textLength="136.7412" lengthAdjust="spacing">Solid line with arrow:</text>
              <text x="833.76" font-size="13" y="151.8097" fill="#000000" font-family="sans-serif" textLength="217.4897" lengthAdjust="spacing">Association between two classes.</text>
              <text x="833.76" font-size="13" y="166.9425" fill="#000000" font-family="sans-serif" textLength="208.9966" lengthAdjust="spacing">Labeled with relationship name.</text>
            </g>
            <!--class Inh-->
            <g data-source-line="25" id="svg2.entity_Inh" data-entity="Inh" class="entity" data-uid="ent0013">
              <rect x="1101.68" y="123.31" fill="#F1F1F1" width="86.6328" style="stroke:#181818;stroke-width:0.5;" rx="2.5" height="48" ry="2.5"/>
              <ellipse rx="11" fill="#ADD1B2" ry="11" style="stroke:#181818;stroke-width:1;" cx="1116.68" cy="139.31"/>
              <path fill="#000000" d="M1119.6488,144.9506 Q1119.0706,145.2475 1118.43,145.3881 Q1117.7894,145.5444 1117.0863,145.5444 Q1114.5863,145.5444 1113.2581,143.9038 Q1111.9456,142.2475 1111.9456,139.1225 Q1111.9456,135.9975 1113.2581,134.3413 Q1114.5863,132.685 1117.0863,132.685 Q1117.7894,132.685 1118.43,132.8413 Q1119.0863,132.9975 1119.6488,133.2944 L1119.6488,136.0131 Q1119.0238,135.435 1118.43,135.1694 Q1117.8363,134.8881 1117.2113,134.8881 Q1115.8675,134.8881 1115.18,135.9663 Q1114.4925,137.0288 1114.4925,139.1225 Q1114.4925,141.2163 1115.18,142.2944 Q1115.8675,143.3569 1117.2113,143.3569 Q1117.8363,143.3569 1118.43,143.0913 Q1119.0238,142.81 1119.6488,142.2319 L1119.6488,144.9506 Z "/>
              <text x="1130.68" font-size="14" y="144.1567" fill="#000000" font-family="sans-serif" textLength="54.6328" lengthAdjust="spacing">A --|&gt; B</text>
              <line y2="155.31" style="stroke:#181818;stroke-width:0.5;" x1="1102.68" x2="1187.3128" y1="155.31"/>
              <line y2="163.31" style="stroke:#181818;stroke-width:0.5;" x1="1102.68" x2="1187.3128" y1="163.31"/>
            </g>
            <g data-source-line="27" id="svg2.entity_GMN14" data-entity="GMN14" class="entity" data-uid="ent0015">
              <path fill="#FEFFDD" style="stroke:#181818;stroke-width:0.5;" d="M1223.46,119.61 L1223.46,143.31 L1188.61,147.31 L1223.46,151.31 L1223.46,175.0084 A0,0 0 0 0 1223.46,175.0084 L1432.5347,175.0084 A0,0 0 0 0 1432.5347,175.0084 L1432.5347,129.61 L1422.5347,119.61 L1223.46,119.61 A0,0 0 0 0 1223.46,119.61"/>
              <path fill="#FEFFDD" style="stroke:#181818;stroke-width:0.5;" d="M1422.5347,119.61 L1422.5347,129.61 L1432.5347,129.61 L1422.5347,119.61"/>
              <text x="1229.46" font-size="13" y="136.6769" fill="#000000" font-family="sans-serif" textLength="89.2925" lengthAdjust="spacing">Hollow arrow:</text>
              <text x="1229.46" font-size="13" y="151.8097" fill="#000000" font-family="sans-serif" textLength="188.0747" lengthAdjust="spacing">Inheritance or specialization.</text>
              <text x="1229.46" font-size="13" y="166.9425" fill="#000000" font-family="sans-serif" textLength="116.9238" lengthAdjust="spacing">A is subclass of B.</text>
            </g>
            <!--link CL to GMN4-->
            <g data-entity-1="CL" data-source-line="6" data-entity-2="GMN4" id="svg2.link_CL_GMN4" class="link" data-uid="lnk6">
              <path fill="none" d="M107.22,114.8 C124.91,89.7 153.14,56.85 187.5,42.16 C272.09,6 306.42,15.6 394.5,42.16 C444.29,57.18 492.81,93.52 522.78,119.26" id="svg2.CL-GMN4" style="stroke:#181818;stroke-width:1;stroke-dasharray:7.0,7.0;"/>
            </g>
            <!--SRC=[TP7BRi8m44Nt-OghRBfeGEes4fKWHIrIr0Nb1vnacbWOE_8OHVJnxtNiW5fGLnxFwnvVts6nMA1SFwzVdyOmINfHxqLBI4jgIJSfFXEWLe8PQJ4UAGIZA7rM6qUmikqSp7jC0LkgdT2j8WpITTEa5WUQJ-NU4fDs3A7XJ-bEa1gk8nnCGoeBRJHlvnbsWlSP2iDku-YG-M4sHrk7LPuj02G-Bahak1VEMLaT7UNOdVfGk2RCyqjJa5cURmnZqGWdq5lJatMIE7JuiH4jFEDQTd9bYTdi4QlWovRKmutkb0JUZ98DbDIJES9QC-IHXDdKKZXfD2fo0v7tP31HWpYQLugA53Lns98AxTp9_cBmFtXVPxwDxcxmOWvuCKgPuJUKhv2L_Zjh6ltXdZoYaXz1Do8j8HbyhAAOtxRwW_7z0m00]-->
          </g>
        </svg>
      </g>
    </g>
  </g>
</svg>
