<?xml version="1.0" encoding="UTF-8"?><svg xmlns="http://www.w3.org/2000/svg" xmlns:xlink="http://www.w3.org/1999/xlink" fill-opacity="1" color-rendering="auto" color-interpolation="auto" text-rendering="auto" stroke="black" stroke-linecap="square" width="1476" stroke-miterlimit="10" shape-rendering="auto" stroke-opacity="1" fill="black" stroke-dasharray="none" font-weight="normal" stroke-width="1" height="1357" font-family="'Dialog'" font-style="normal" stroke-linejoin="miter" font-size="12px" stroke-dashoffset="0" image-rendering="auto">
  <!--Generated by ySVG 2.6-->
  <defs id="genericDefs"/>
  <g>
    <g fill="white" text-rendering="geometricPrecision" shape-rendering="geometricPrecision" transform="translate(178,717)" stroke="white">
      <rect x="-178" width="1476" height="1357" y="-717" clip-path="url(#clipPath2)" stroke="none"/>
    </g>
    <g text-rendering="geometricPrecision" shape-rendering="geometricPrecision" transform="matrix(1,0,0,1,10.4375,1136.89)">
      <g clip-path="url(#clipPath3)">
        <svg opacity="1" writing-mode="lr-tb" data-diagram-type="CLASS" stop-color="rgb(0, 0, 0)" shape-rendering="auto" glyph-orientation-horizontal="0deg" color-profile="auto" lighting-color="rgb(255, 255, 255)" contentStyleType="text/css" color="rgb(0, 0, 0)" font-weight="400" alignment-baseline="auto" font-style="normal" version="1.1" color-interpolation-filters="linearrgb" text-anchor="start" stroke-linecap="butt" color-interpolation="srgb" font-variant="normal" word-spacing="normal" fill-opacity="1" text-rendering="auto" clip-path="none" text-decoration="none" letter-spacing="normal" viewBox="0 0 1456 202" glyph-orientation-vertical="auto" display="inline" font-size-adjust="none" overflow="hidden" fill="rgb(0, 0, 0)" font-stretch="normal" stroke-dasharray="none" stroke-miterlimit="4" stop-opacity="1" color-rendering="auto" font-size="12" pointer-events="visiblepainted" mask="none" direction="ltr" baseline-shift="baseline" enable-background="accumulate" fill-rule="nonzero" zoomAndPan="magnify" image-rendering="auto" stroke-dashoffset="0" style="width:1456px;height:202px;background:#FFFFFF;" width="1456px" marker-end="none" clip="auto" cursor="auto" stroke="none" filter="none" visibility="visible" kerning="auto" stroke-width="1" font-family="&quot;Arial&quot;,&quot;Helvetica&quot;,sans-serif" preserveAspectRatio="none" flood-opacity="1" clip-rule="nonzero" src="none" height="202px" unicode-bidi="normal" stroke-linejoin="miter" stroke-opacity="1" flood-color="rgb(0, 0, 0)" dominant-baseline="auto" marker-start="none" marker-mid="none">
          <defs>
            <clipPath clipPathUnits="userSpaceOnUse" id="clipPath1">
              <path d="M0 0 L1476 0 L1476 1357 L0 1357 L0 0 Z"/>
            </clipPath>
            <clipPath clipPathUnits="userSpaceOnUse" id="clipPath2">
              <path d="M-178 -717 L1298 -717 L1298 640 L-178 640 L-178 -717 Z"/>
            </clipPath>
            <clipPath clipPathUnits="userSpaceOnUse" id="clipPath3">
              <path d="M-10.4375 -1136.89 L1465.5625 -1136.89 L1465.5625 220.11 L-10.4375 220.11 L-10.4375 -1136.89 Z"/>
            </clipPath>
            <clipPath clipPathUnits="userSpaceOnUse" id="clipPath4">
              <path d="M-1.5315 -1.8709 L777.6537 -1.8709 L777.6537 765.3787 L-1.5315 765.3787 L-1.5315 -1.8709 Z"/>
            </clipPath>
          </defs>
          <g>
            <!--cluster Legend-->
            <g data-source-line="3" id="svg1.cluster_Legend" data-entity="Legend" class="cluster" data-uid="ent0002">
              <path fill="none" style="stroke:#000000;stroke-width:1.5;" d="M8.5,80.16 L67.4209,80.16 A3.75,3.75 0 0 1 69.9209,82.66 L76.9209,102.4569 L1446.5,102.4569 A2.5,2.5 0 0 1 1449,104.9569 L1449,192.96 A2.5,2.5 0 0 1 1446.5,195.46 L8.5,195.46 A2.5,2.5 0 0 1 6,192.96 L6,82.66 A2.5,2.5 0 0 1 8.5,80.16"/>
              <line y2="102.4569" style="stroke:#000000;stroke-width:1.5;" x1="6" x2="76.9209" y1="102.4569"/>
              <text x="10" font-size="14" y="95.1551" fill="#000000" font-family="sans-serif" font-weight="bold" textLength="57.9209" lengthAdjust="spacing">Legend</text>
            </g>
            <!--class CL-->
            <g data-source-line="4" id="svg1.entity_CL" data-entity="CL" class="entity" data-uid="ent0003">
              <rect x="21.72" y="115.16" fill="#F1F1F1" width="130.5693" style="stroke:#181818;stroke-width:0.5;" rx="2.5" height="64.2969" ry="2.5"/>
              <ellipse rx="11" fill="#ADD1B2" ry="11" style="stroke:#181818;stroke-width:1;" cx="64.5018" cy="131.16"/>
              <path fill="#000000" d="M67.4705,136.8006 Q66.8924,137.0975 66.2518,137.2381 Q65.6112,137.3944 64.908,137.3944 Q62.408,137.3944 61.0799,135.7538 Q59.7674,134.0975 59.7674,130.9725 Q59.7674,127.8475 61.0799,126.1913 Q62.408,124.535 64.908,124.535 Q65.6112,124.535 66.2518,124.6913 Q66.908,124.8475 67.4705,125.1444 L67.4705,127.8631 Q66.8455,127.285 66.2518,127.0194 Q65.658,126.7381 65.033,126.7381 Q63.6893,126.7381 63.0018,127.8163 Q62.3143,128.8788 62.3143,130.9725 Q62.3143,133.0663 63.0018,134.1444 Q63.6893,135.2069 65.033,135.2069 Q65.658,135.2069 66.2518,134.9413 Q66.8455,134.66 67.4705,134.0819 L67.4705,136.8006 Z "/>
              <text x="84.6755" font-size="14" y="136.0067" fill="#000000" font-family="sans-serif" textLength="36.832" lengthAdjust="spacing">Class</text>
              <line y2="147.16" style="stroke:#181818;stroke-width:0.5;" x1="22.72" x2="151.2893" y1="147.16"/>
              <ellipse rx="3" fill="none" ry="3" style="stroke:#038048;stroke-width:1;" cx="32.72" cy="160.8084"/>
              <text x="41.72" font-size="14" y="164.1551" fill="#000000" font-family="sans-serif" textLength="104.5693" lengthAdjust="spacing">attribute: Type</text>
              <line y2="171.4569" style="stroke:#181818;stroke-width:0.5;" x1="22.72" x2="151.2893" y1="171.4569"/>
            </g>
            <g data-source-line="6" id="svg1.entity_GMN4" data-entity="GMN4" class="entity" data-uid="ent0005">
              <path fill="#FEFFDD" style="stroke:#181818;stroke-width:0.5;" d="M429.55,119.61 L429.55,175.0084 L676.4567,175.0084 L676.4567,129.61 L666.4567,119.61 L429.55,119.61"/>
              <path fill="#FEFFDD" style="stroke:#181818;stroke-width:1;" d="M666.4567,119.61 L666.4567,129.61 L676.4567,129.61 L666.4567,119.61"/>
              <text x="435.55" font-size="13" y="136.6769" fill="#000000" font-family="sans-serif" textLength="178.5913" lengthAdjust="spacing">Rectangle with class name.</text>
              <text x="435.55" font-size="13" y="151.8097" fill="#000000" font-family="sans-serif" textLength="225.9067" lengthAdjust="spacing">Represents an entity in the model,</text>
              <text x="435.55" font-size="13" y="166.9425" fill="#000000" font-family="sans-serif" textLength="202.6299" lengthAdjust="spacing">e.g., Task, CostItem, Resource.</text>
            </g>
            <path fill="#FEFFDD" style="stroke:#181818;stroke-width:0.5;" d="M187.5,122.18 L187.5,138.3128 L146.2893,159.3084 L187.5,146.3128 L187.5,162.4456 A0,0 0 0 0 187.5,162.4456 L394.5054,162.4456 A0,0 0 0 0 394.5054,162.4456 L394.5054,132.18 L384.5054,122.18 L187.5,122.18 A0,0 0 0 0 187.5,122.18"/>
            <path fill="#FEFFDD" style="stroke:#181818;stroke-width:0.5;" d="M384.5054,122.18 L384.5054,132.18 L394.5054,132.18 L384.5054,122.18"/>
            <text x="193.5" font-size="13" y="139.2469" fill="#000000" font-family="sans-serif" textLength="186.0054" lengthAdjust="spacing">Attributes or data properties</text>
            <text x="193.5" font-size="13" y="154.3797" fill="#000000" font-family="sans-serif" textLength="78.5332" lengthAdjust="spacing">of the class.</text>
            <!--class Rel1-->
            <g data-source-line="18" id="svg1.entity_Rel1" data-entity="Rel1" class="entity" data-uid="ent0009">
              <rect x="711.04" y="123.31" fill="#F1F1F1" width="81.916" style="stroke:#181818;stroke-width:0.5;" rx="2.5" height="48" ry="2.5"/>
              <ellipse rx="11" fill="#ADD1B2" ry="11" style="stroke:#181818;stroke-width:1;" cx="726.04" cy="139.31"/>
              <path fill="#000000" d="M729.0088,144.9506 Q728.4306,145.2475 727.79,145.3881 Q727.1494,145.5444 726.4463,145.5444 Q723.9463,145.5444 722.6181,143.9038 Q721.3056,142.2475 721.3056,139.1225 Q721.3056,135.9975 722.6181,134.3413 Q723.9463,132.685 726.4463,132.685 Q727.1494,132.685 727.79,132.8413 Q728.4463,132.9975 729.0088,133.2944 L729.0088,136.0131 Q728.3838,135.435 727.79,135.1694 Q727.1963,134.8881 726.5713,134.8881 Q725.2275,134.8881 724.54,135.9663 Q723.8525,137.0288 723.8525,139.1225 Q723.8525,141.2163 724.54,142.2944 Q725.2275,143.3569 726.5713,143.3569 Q727.1963,143.3569 727.79,143.0913 Q728.3838,142.81 729.0088,142.2319 L729.0088,144.9506 Z "/>
              <text x="740.04" font-size="14" y="144.1567" fill="#000000" font-family="sans-serif" textLength="49.916" lengthAdjust="spacing">A --&gt; B</text>
              <line y2="155.31" style="stroke:#181818;stroke-width:0.5;" x1="712.04" x2="791.956" y1="155.31"/>
              <line y2="163.31" style="stroke:#181818;stroke-width:0.5;" x1="712.04" x2="791.956" y1="163.31"/>
            </g>
            <g data-source-line="20" id="svg1.entity_GMN10" data-entity="GMN10" class="entity" data-uid="ent0011">
              <path fill="#FEFFDD" style="stroke:#181818;stroke-width:0.5;" d="M827.76,119.61 L827.76,143.31 L793.13,147.31 L827.76,151.31 L827.76,175.0084 A0,0 0 0 0 827.76,175.0084 L1066.2497,175.0084 A0,0 0 0 0 1066.2497,175.0084 L1066.2497,129.61 L1056.2497,119.61 L827.76,119.61 A0,0 0 0 0 827.76,119.61"/>
              <path fill="#FEFFDD" style="stroke:#181818;stroke-width:0.5;" d="M1056.2497,119.61 L1056.2497,129.61 L1066.2497,129.61 L1056.2497,119.61"/>
              <text x="833.76" font-size="13" y="136.6769" fill="#000000" font-family="sans-serif" textLength="136.7412" lengthAdjust="spacing">Solid line with arrow:</text>
              <text x="833.76" font-size="13" y="151.8097" fill="#000000" font-family="sans-serif" textLength="217.4897" lengthAdjust="spacing">Association between two classes.</text>
              <text x="833.76" font-size="13" y="166.9425" fill="#000000" font-family="sans-serif" textLength="208.9966" lengthAdjust="spacing">Labeled with relationship name.</text>
            </g>
            <!--class Inh-->
            <g data-source-line="25" id="svg1.entity_Inh" data-entity="Inh" class="entity" data-uid="ent0013">
              <rect x="1101.68" y="123.31" fill="#F1F1F1" width="86.6328" style="stroke:#181818;stroke-width:0.5;" rx="2.5" height="48" ry="2.5"/>
              <ellipse rx="11" fill="#ADD1B2" ry="11" style="stroke:#181818;stroke-width:1;" cx="1116.68" cy="139.31"/>
              <path fill="#000000" d="M1119.6488,144.9506 Q1119.0706,145.2475 1118.43,145.3881 Q1117.7894,145.5444 1117.0863,145.5444 Q1114.5863,145.5444 1113.2581,143.9038 Q1111.9456,142.2475 1111.9456,139.1225 Q1111.9456,135.9975 1113.2581,134.3413 Q1114.5863,132.685 1117.0863,132.685 Q1117.7894,132.685 1118.43,132.8413 Q1119.0863,132.9975 1119.6488,133.2944 L1119.6488,136.0131 Q1119.0238,135.435 1118.43,135.1694 Q1117.8363,134.8881 1117.2113,134.8881 Q1115.8675,134.8881 1115.18,135.9663 Q1114.4925,137.0288 1114.4925,139.1225 Q1114.4925,141.2163 1115.18,142.2944 Q1115.8675,143.3569 1117.2113,143.3569 Q1117.8363,143.3569 1118.43,143.0913 Q1119.0238,142.81 1119.6488,142.2319 L1119.6488,144.9506 Z "/>
              <text x="1130.68" font-size="14" y="144.1567" fill="#000000" font-family="sans-serif" textLength="54.6328" lengthAdjust="spacing">A --|&gt; B</text>
              <line y2="155.31" style="stroke:#181818;stroke-width:0.5;" x1="1102.68" x2="1187.3128" y1="155.31"/>
              <line y2="163.31" style="stroke:#181818;stroke-width:0.5;" x1="1102.68" x2="1187.3128" y1="163.31"/>
            </g>
            <g data-source-line="27" id="svg1.entity_GMN14" data-entity="GMN14" class="entity" data-uid="ent0015">
              <path fill="#FEFFDD" style="stroke:#181818;stroke-width:0.5;" d="M1223.46,119.61 L1223.46,143.31 L1188.61,147.31 L1223.46,151.31 L1223.46,175.0084 A0,0 0 0 0 1223.46,175.0084 L1432.5347,175.0084 A0,0 0 0 0 1432.5347,175.0084 L1432.5347,129.61 L1422.5347,119.61 L1223.46,119.61 A0,0 0 0 0 1223.46,119.61"/>
              <path fill="#FEFFDD" style="stroke:#181818;stroke-width:0.5;" d="M1422.5347,119.61 L1422.5347,129.61 L1432.5347,129.61 L1422.5347,119.61"/>
              <text x="1229.46" font-size="13" y="136.6769" fill="#000000" font-family="sans-serif" textLength="89.2925" lengthAdjust="spacing">Hollow arrow:</text>
              <text x="1229.46" font-size="13" y="151.8097" fill="#000000" font-family="sans-serif" textLength="188.0747" lengthAdjust="spacing">Inheritance or specialization.</text>
              <text x="1229.46" font-size="13" y="166.9425" fill="#000000" font-family="sans-serif" textLength="116.9238" lengthAdjust="spacing">A is subclass of B.</text>
            </g>
            <!--link CL to GMN4-->
            <g data-entity-1="CL" data-source-line="6" data-entity-2="GMN4" id="svg1.link_CL_GMN4" class="link" data-uid="lnk6">
              <path fill="none" d="M107.22,114.8 C124.91,89.7 153.14,56.85 187.5,42.16 C272.09,6 306.42,15.6 394.5,42.16 C444.29,57.18 492.81,93.52 522.78,119.26" id="svg1.CL-GMN4" style="stroke:#181818;stroke-width:1;stroke-dasharray:7.0,7.0;"/>
            </g>
            <!--SRC=[TP7BRi8m44Nt-OghRBfeGEes4fKWHIrIr0Nb1vnacbWOE_8OHVJnxtNiW5fGLnxFwnvVts6nMA1SFwzVdyOmINfHxqLBI4jgIJSfFXEWLe8PQJ4UAGIZA7rM6qUmikqSp7jC0LkgdT2j8WpITTEa5WUQJ-NU4fDs3A7XJ-bEa1gk8nnCGoeBRJHlvnbsWlSP2iDku-YG-M4sHrk7LPuj02G-Bahak1VEMLaT7UNOdVfGk2RCyqjJa5cURmnZqGWdq5lJatMIE7JuiH4jFEDQTd9bYTdi4QlWovRKmutkb0JUZ98DbDIJES9QC-IHXDdKKZXfD2fo0v7tP31HWpYQLugA53Lns98AxTp9_cBmFtXVPxwDxcxmOWvuCKgPuJUKhv2L_Zjh6ltXdZoYaXz1Do8j8HbyhAAOtxRwW_7z0m00]-->
          </g>
        </svg>
      </g>
    </g>
    <g text-rendering="geometricPrecision" shape-rendering="geometricPrecision" transform="matrix(1.8943,0,0,1.7687,2.9011,3.309)">
      <g clip-path="url(#clipPath4)">
        <svg opacity="1" writing-mode="lr-tb" data-diagram-type="CLASS" stop-color="rgb(0, 0, 0)" shape-rendering="auto" glyph-orientation-horizontal="0deg" color-profile="auto" lighting-color="rgb(255, 255, 255)" contentStyleType="text/css" color="rgb(0, 0, 0)" font-weight="400" alignment-baseline="auto" font-style="normal" version="1.1" color-interpolation-filters="linearrgb" text-anchor="start" stroke-linecap="butt" color-interpolation="srgb" font-variant="normal" word-spacing="normal" fill-opacity="1" text-rendering="auto" clip-path="none" text-decoration="none" letter-spacing="normal" viewBox="0 0 776 632" glyph-orientation-vertical="auto" display="inline" font-size-adjust="none" overflow="hidden" fill="rgb(0, 0, 0)" font-stretch="normal" stroke-dasharray="none" stroke-miterlimit="4" stop-opacity="1" color-rendering="auto" font-size="12" pointer-events="visiblepainted" mask="none" direction="ltr" baseline-shift="baseline" enable-background="accumulate" fill-rule="nonzero" zoomAndPan="magnify" image-rendering="auto" stroke-dashoffset="0" style="width:776px;height:632px;background:#FFFFFF;" width="776px" marker-end="none" clip="auto" cursor="auto" stroke="none" filter="none" visibility="visible" kerning="auto" stroke-width="1" font-family="&quot;Arial&quot;,&quot;Helvetica&quot;,sans-serif" preserveAspectRatio="none" flood-opacity="1" clip-rule="nonzero" src="none" height="632px" unicode-bidi="normal" stroke-linejoin="miter" stroke-opacity="1" flood-color="rgb(0, 0, 0)" dominant-baseline="auto" marker-start="none" marker-mid="none">
          <defs/>
          <g>
            <!--class Project-->
            <g data-source-line="3" id="svg2.entity_Project" data-entity="Project" class="entity" data-uid="ent0002">
              <rect x="258.07" y="23.3" fill="#F1F1F1" width="142.9971" style="stroke:#181818;stroke-width:0.5;" rx="2.5" height="80.5938" ry="2.5"/>
              <ellipse rx="11" fill="#ADD1B2" ry="11" style="stroke:#181818;stroke-width:1;" cx="301.2148" cy="39.3"/>
              <path fill="#000000" d="M304.1835,44.9406 Q303.6054,45.2375 302.9648,45.3781 Q302.3242,45.5344 301.621,45.5344 Q299.121,45.5344 297.7929,43.8938 Q296.4804,42.2375 296.4804,39.1125 Q296.4804,35.9875 297.7929,34.3313 Q299.121,32.675 301.621,32.675 Q302.3242,32.675 302.9648,32.8313 Q303.621,32.9875 304.1835,33.2844 L304.1835,36.0031 Q303.5585,35.425 302.9648,35.1594 Q302.371,34.8781 301.746,34.8781 Q300.4023,34.8781 299.7148,35.9563 Q299.0273,37.0188 299.0273,39.1125 Q299.0273,41.2063 299.7148,42.2844 Q300.4023,43.3469 301.746,43.3469 Q302.371,43.3469 302.9648,43.0813 Q303.5585,42.8 304.1835,42.2219 L304.1835,44.9406 Z "/>
              <text x="321.4692" font-size="14" y="44.1467" fill="#000000" font-family="sans-serif" textLength="48.4531" lengthAdjust="spacing">Project</text>
              <line y2="55.3" style="stroke:#181818;stroke-width:0.5;" x1="259.07" x2="400.0671" y1="55.3"/>
              <ellipse rx="3" fill="none" ry="3" style="stroke:#038048;stroke-width:1;" cx="269.07" cy="68.9484"/>
              <text x="278.07" font-size="14" y="72.2951" fill="#000000" font-family="sans-serif" textLength="88.71" lengthAdjust="spacing">hasId: String</text>
              <ellipse rx="3" fill="none" ry="3" style="stroke:#038048;stroke-width:1;" cx="269.07" cy="85.2453"/>
              <text x="278.07" font-size="14" y="88.592" fill="#000000" font-family="sans-serif" textLength="116.9971" lengthAdjust="spacing">hasName: String</text>
              <line y2="95.8938" style="stroke:#181818;stroke-width:0.5;" x1="259.07" x2="400.0671" y1="95.8938"/>
            </g>
            <!--class Resource-->
            <g data-source-line="8" id="svg2.entity_Resource" data-entity="Resource" class="entity" data-uid="ent0003">
              <rect x="299.88" y="197.19" fill="#F1F1F1" width="159.3691" style="stroke:#181818;stroke-width:0.5;" rx="2.5" height="162.0781" ry="2.5"/>
              <ellipse rx="11" fill="#ADD1B2" ry="11" style="stroke:#181818;stroke-width:1;" cx="342.8833" cy="213.19"/>
              <path fill="#000000" d="M345.852,218.8306 Q345.2739,219.1275 344.6333,219.2681 Q343.9926,219.4244 343.2895,219.4244 Q340.7895,219.4244 339.4614,217.7838 Q338.1489,216.1275 338.1489,213.0025 Q338.1489,209.8775 339.4614,208.2213 Q340.7895,206.565 343.2895,206.565 Q343.9926,206.565 344.6333,206.7213 Q345.2895,206.8775 345.852,207.1744 L345.852,209.8931 Q345.227,209.315 344.6333,209.0494 Q344.0395,208.7681 343.4145,208.7681 Q342.0708,208.7681 341.3833,209.8463 Q340.6958,210.9088 340.6958,213.0025 Q340.6958,215.0963 341.3833,216.1744 Q342.0708,217.2369 343.4145,217.2369 Q344.0395,217.2369 344.6333,216.9713 Q345.227,216.69 345.852,216.1119 L345.852,218.8306 Z "/>
              <text x="363.1062" font-size="14" y="218.0367" fill="#000000" font-family="sans-serif" textLength="65.1396" lengthAdjust="spacing">Resource</text>
              <line y2="229.19" style="stroke:#181818;stroke-width:0.5;" x1="300.88" x2="458.2491" y1="229.19"/>
              <ellipse rx="3" fill="none" ry="3" style="stroke:#038048;stroke-width:1;" cx="310.88" cy="242.8384"/>
              <text x="319.88" font-size="14" y="246.1851" fill="#000000" font-family="sans-serif" textLength="88.71" lengthAdjust="spacing">hasId: String</text>
              <ellipse rx="3" fill="none" ry="3" style="stroke:#038048;stroke-width:1;" cx="310.88" cy="259.1353"/>
              <text x="319.88" font-size="14" y="262.482" fill="#000000" font-family="sans-serif" textLength="133.3691" lengthAdjust="spacing">hasGlobalId: String</text>
              <ellipse rx="3" fill="none" ry="3" style="stroke:#038048;stroke-width:1;" cx="310.88" cy="275.4322"/>
              <text x="319.88" font-size="14" y="278.7789" fill="#000000" font-family="sans-serif" textLength="116.9971" lengthAdjust="spacing">hasName: String</text>
              <ellipse rx="3" fill="none" ry="3" style="stroke:#038048;stroke-width:1;" cx="310.88" cy="291.7291"/>
              <text x="319.88" font-size="14" y="295.0757" fill="#000000" font-family="sans-serif" textLength="132.0361" lengthAdjust="spacing">baseRate: Decimal</text>
              <ellipse rx="3" fill="none" ry="3" style="stroke:#038048;stroke-width:1;" cx="310.88" cy="308.0259"/>
              <text x="319.88" font-size="14" y="311.3726" fill="#000000" font-family="sans-serif" textLength="112.499" lengthAdjust="spacing">currency: String</text>
              <ellipse rx="3" fill="none" ry="3" style="stroke:#038048;stroke-width:1;" cx="310.88" cy="324.3228"/>
              <text x="319.88" font-size="14" y="327.6695" fill="#000000" font-family="sans-serif" textLength="104.5283" lengthAdjust="spacing">rateDate: Date</text>
              <ellipse rx="3" fill="none" ry="3" style="stroke:#038048;stroke-width:1;" cx="310.88" cy="340.6197"/>
              <text x="319.88" font-size="14" y="343.9664" fill="#000000" font-family="sans-serif" textLength="132.5488" lengthAdjust="spacing">maxUnits: Decimal</text>
              <line y2="351.2681" style="stroke:#181818;stroke-width:0.5;" x1="300.88" x2="458.2491" y1="351.2681"/>
            </g>
            <!--class ResourceType-->
            <g data-source-line="18" id="svg2.entity_ResourceType" data-entity="ResourceType" class="entity" data-uid="ent0004">
              <rect x="22.07" y="444.41" fill="#F1F1F1" width="142.9971" style="stroke:#181818;stroke-width:0.5;" rx="2.5" height="64.2969" ry="2.5"/>
              <ellipse rx="11" fill="#ADD1B2" ry="11" style="stroke:#181818;stroke-width:1;" cx="42.2542" cy="460.41"/>
              <path fill="#000000" d="M45.223,466.0506 Q44.6449,466.3475 44.0042,466.4881 Q43.3636,466.6444 42.6605,466.6444 Q40.1605,466.6444 38.8324,465.0038 Q37.5199,463.3475 37.5199,460.2225 Q37.5199,457.0975 38.8324,455.4413 Q40.1605,453.785 42.6605,453.785 Q43.3636,453.785 44.0042,453.9413 Q44.6605,454.0975 45.223,454.3944 L45.223,457.1131 Q44.598,456.535 44.0042,456.2694 Q43.4105,455.9881 42.7855,455.9881 Q41.4417,455.9881 40.7542,457.0663 Q40.0667,458.1288 40.0667,460.2225 Q40.0667,462.3163 40.7542,463.3944 Q41.4417,464.4569 42.7855,464.4569 Q43.4105,464.4569 44.0042,464.1913 Q44.598,463.91 45.223,463.3319 L45.223,466.0506 Z "/>
              <text x="57.4063" font-size="14" y="465.2567" fill="#000000" font-family="sans-serif" textLength="99.4766" lengthAdjust="spacing">ResourceType</text>
              <line y2="476.41" style="stroke:#181818;stroke-width:0.5;" x1="23.07" x2="164.0671" y1="476.41"/>
              <ellipse rx="3" fill="none" ry="3" style="stroke:#038048;stroke-width:1;" cx="33.07" cy="490.0584"/>
              <text x="42.07" font-size="14" y="493.4051" fill="#000000" font-family="sans-serif" textLength="116.9971" lengthAdjust="spacing">hasName: String</text>
              <line y2="500.7069" style="stroke:#181818;stroke-width:0.5;" x1="23.07" x2="164.0671" y1="500.7069"/>
            </g>
            <!--class EquipmentResource-->
            <g data-source-line="22" id="svg2.entity_EquipmentResource" data-entity="EquipmentResource" class="entity" data-uid="ent0005">
              <rect x="7" y="577.86" fill="#F1F1F1" width="173.1348" style="stroke:#181818;stroke-width:0.5;" rx="2.5" height="48" ry="2.5"/>
              <ellipse rx="11" fill="#ADD1B2" ry="11" style="stroke:#181818;stroke-width:1;" cx="22" cy="593.86"/>
              <path fill="#000000" d="M24.9688,599.5006 Q24.3906,599.7975 23.75,599.9381 Q23.1094,600.0944 22.4063,600.0944 Q19.9063,600.0944 18.5781,598.4538 Q17.2656,596.7975 17.2656,593.6725 Q17.2656,590.5475 18.5781,588.8913 Q19.9063,587.235 22.4063,587.235 Q23.1094,587.235 23.75,587.3913 Q24.4063,587.5475 24.9688,587.8444 L24.9688,590.5631 Q24.3438,589.985 23.75,589.7194 Q23.1563,589.4381 22.5313,589.4381 Q21.1875,589.4381 20.5,590.5163 Q19.8125,591.5788 19.8125,593.6725 Q19.8125,595.7663 20.5,596.8444 Q21.1875,597.9069 22.5313,597.9069 Q23.1563,597.9069 23.75,597.6413 Q24.3438,597.36 24.9688,596.7819 L24.9688,599.5006 Z "/>
              <text x="36" font-size="14" y="598.7067" fill="#000000" font-family="sans-serif" textLength="141.1348" lengthAdjust="spacing">EquipmentResource</text>
              <line y2="609.86" style="stroke:#181818;stroke-width:0.5;" x1="8" x2="179.1348" y1="609.86"/>
              <line y2="617.86" style="stroke:#181818;stroke-width:0.5;" x1="8" x2="179.1348" y1="617.86"/>
            </g>
            <!--class TrackingTag-->
            <g data-source-line="25" id="svg2.entity_TrackingTag" data-entity="TrackingTag" class="entity" data-uid="ent0006">
              <rect x="200.06" y="444.41" fill="#F1F1F1" width="169.0146" style="stroke:#181818;stroke-width:0.5;" rx="2.5" height="64.2969" ry="2.5"/>
              <ellipse rx="11" fill="#ADD1B2" ry="11" style="stroke:#181818;stroke-width:1;" cx="237.8553" cy="460.41"/>
              <path fill="#000000" d="M240.8241,466.0506 Q240.2459,466.3475 239.6053,466.4881 Q238.9647,466.6444 238.2616,466.6444 Q235.7616,466.6444 234.4334,465.0038 Q233.1209,463.3475 233.1209,460.2225 Q233.1209,457.0975 234.4334,455.4413 Q235.7616,453.785 238.2616,453.785 Q238.9647,453.785 239.6053,453.9413 Q240.2616,454.0975 240.8241,454.3944 L240.8241,457.1131 Q240.1991,456.535 239.6053,456.2694 Q239.0116,455.9881 238.3866,455.9881 Q237.0428,455.9881 236.3553,457.0663 Q235.6678,458.1288 235.6678,460.2225 Q235.6678,462.3163 236.3553,463.3944 Q237.0428,464.4569 238.3866,464.4569 Q239.0116,464.4569 239.6053,464.1913 Q240.1991,463.91 240.8241,463.3319 L240.8241,466.0506 Z "/>
              <text x="256.9209" font-size="14" y="465.2567" fill="#000000" font-family="sans-serif" textLength="86.3584" lengthAdjust="spacing">TrackingTag</text>
              <line y2="476.41" style="stroke:#181818;stroke-width:0.5;" x1="201.06" x2="368.0746" y1="476.41"/>
              <ellipse rx="3" fill="none" ry="3" style="stroke:#038048;stroke-width:1;" cx="211.06" cy="490.0584"/>
              <text x="220.06" font-size="14" y="493.4051" fill="#000000" font-family="sans-serif" textLength="143.0146" lengthAdjust="spacing">hasTagName: String</text>
              <line y2="500.7069" style="stroke:#181818;stroke-width:0.5;" x1="201.06" x2="368.0746" y1="500.7069"/>
            </g>
            <!--class Units-->
            <g data-source-line="29" id="svg2.entity_Units" data-entity="Units" class="entity" data-uid="ent0007">
              <rect x="404.07" y="444.41" fill="#F1F1F1" width="142.9971" style="stroke:#181818;stroke-width:0.5;" rx="2.5" height="64.2969" ry="2.5"/>
              <ellipse rx="11" fill="#ADD1B2" ry="11" style="stroke:#181818;stroke-width:1;" cx="453.4221" cy="460.41"/>
              <path fill="#000000" d="M456.3908,466.0506 Q455.8127,466.3475 455.1721,466.4881 Q454.5314,466.6444 453.8283,466.6444 Q451.3283,466.6444 450.0002,465.0038 Q448.6877,463.3475 448.6877,460.2225 Q448.6877,457.0975 450.0002,455.4413 Q451.3283,453.785 453.8283,453.785 Q454.5314,453.785 455.1721,453.9413 Q455.8283,454.0975 456.3908,454.3944 L456.3908,457.1131 Q455.7658,456.535 455.1721,456.2694 Q454.5783,455.9881 453.9533,455.9881 Q452.6096,455.9881 451.9221,457.0663 Q451.2346,458.1288 451.2346,460.2225 Q451.2346,462.3163 451.9221,463.3944 Q452.6096,464.4569 453.9533,464.4569 Q454.5783,464.4569 455.1721,464.1913 Q455.7658,463.91 456.3908,463.3319 L456.3908,466.0506 Z "/>
              <text x="473.9221" font-size="14" y="465.2567" fill="#000000" font-family="sans-serif" textLength="35.793" lengthAdjust="spacing">Units</text>
              <line y2="476.41" style="stroke:#181818;stroke-width:0.5;" x1="405.07" x2="546.0671" y1="476.41"/>
              <ellipse rx="3" fill="none" ry="3" style="stroke:#038048;stroke-width:1;" cx="415.07" cy="490.0584"/>
              <text x="424.07" font-size="14" y="493.4051" fill="#000000" font-family="sans-serif" textLength="116.9971" lengthAdjust="spacing">hasName: String</text>
              <line y2="500.7069" style="stroke:#181818;stroke-width:0.5;" x1="405.07" x2="546.0671" y1="500.7069"/>
            </g>
            <!--class ResourceConstraint-->
            <g data-source-line="33" id="svg2.entity_ResourceConstraint" data-entity="ResourceConstraint" class="entity" data-uid="ent0008">
              <rect x="582.07" y="436.27" fill="#F1F1F1" width="186.9863" style="stroke:#181818;stroke-width:0.5;" rx="2.5" height="80.5938" ry="2.5"/>
              <ellipse rx="11" fill="#ADD1B2" ry="11" style="stroke:#181818;stroke-width:1;" cx="604.8382" cy="452.27"/>
              <path fill="#000000" d="M607.807,457.9106 Q607.2288,458.2075 606.5882,458.3481 Q605.9476,458.5044 605.2445,458.5044 Q602.7445,458.5044 601.4163,456.8638 Q600.1038,455.2075 600.1038,452.0825 Q600.1038,448.9575 601.4163,447.3013 Q602.7445,445.645 605.2445,445.645 Q605.9476,445.645 606.5882,445.8013 Q607.2445,445.9575 607.807,446.2544 L607.807,448.9731 Q607.182,448.395 606.5882,448.1294 Q605.9945,447.8481 605.3695,447.8481 Q604.0257,447.8481 603.3382,448.9263 Q602.6507,449.9888 602.6507,452.0825 Q602.6507,454.1763 603.3382,455.2544 Q604.0257,456.3169 605.3695,456.3169 Q605.9945,456.3169 606.5882,456.0513 Q607.182,455.77 607.807,455.1919 L607.807,457.9106 Z "/>
              <text x="620.5645" font-size="14" y="457.1167" fill="#000000" font-family="sans-serif" textLength="137.7236" lengthAdjust="spacing">ResourceConstraint</text>
              <line y2="468.27" style="stroke:#181818;stroke-width:0.5;" x1="583.07" x2="768.0563" y1="468.27"/>
              <ellipse rx="3" fill="none" ry="3" style="stroke:#038048;stroke-width:1;" cx="593.07" cy="481.9184"/>
              <text x="602.07" font-size="14" y="485.2651" fill="#000000" font-family="sans-serif" textLength="155.791" lengthAdjust="spacing">constraintType: String</text>
              <ellipse rx="3" fill="none" ry="3" style="stroke:#038048;stroke-width:1;" cx="593.07" cy="498.2153"/>
              <text x="602.07" font-size="14" y="501.562" fill="#000000" font-family="sans-serif" textLength="160.9863" lengthAdjust="spacing">constraintValue: String</text>
              <line y2="508.8638" style="stroke:#181818;stroke-width:0.5;" x1="583.07" x2="768.0563" y1="508.8638"/>
            </g>
            <!--class Task-->
            <g data-source-line="38" id="svg2.entity_Task" data-entity="Task" class="entity" data-uid="ent0009">
              <rect x="543.07" y="237.93" fill="#F1F1F1" width="142.9971" style="stroke:#181818;stroke-width:0.5;" rx="2.5" height="80.5938" ry="2.5"/>
              <ellipse rx="11" fill="#ADD1B2" ry="11" style="stroke:#181818;stroke-width:1;" cx="594.0524" cy="253.93"/>
              <path fill="#000000" d="M597.0212,259.5706 Q596.443,259.8675 595.8024,260.0081 Q595.1618,260.1644 594.4587,260.1644 Q591.9587,260.1644 590.6305,258.5238 Q589.318,256.8675 589.318,253.7425 Q589.318,250.6175 590.6305,248.9613 Q591.9587,247.305 594.4587,247.305 Q595.1618,247.305 595.8024,247.4613 Q596.4587,247.6175 597.0212,247.9144 L597.0212,250.6331 Q596.3962,250.055 595.8024,249.7894 Q595.2087,249.5081 594.5837,249.5081 Q593.2399,249.5081 592.5524,250.5863 Q591.8649,251.6488 591.8649,253.7425 Q591.8649,255.8363 592.5524,256.9144 Q593.2399,257.9769 594.5837,257.9769 Q595.2087,257.9769 595.8024,257.7113 Q596.3962,257.43 597.0212,256.8519 L597.0212,259.5706 Z "/>
              <text x="614.5524" font-size="14" y="258.7767" fill="#000000" font-family="sans-serif" textLength="32.5322" lengthAdjust="spacing">Task</text>
              <line y2="269.93" style="stroke:#181818;stroke-width:0.5;" x1="544.07" x2="685.0671" y1="269.93"/>
              <ellipse rx="3" fill="none" ry="3" style="stroke:#038048;stroke-width:1;" cx="554.07" cy="283.5784"/>
              <text x="563.07" font-size="14" y="286.9251" fill="#000000" font-family="sans-serif" textLength="88.71" lengthAdjust="spacing">hasId: String</text>
              <ellipse rx="3" fill="none" ry="3" style="stroke:#038048;stroke-width:1;" cx="554.07" cy="299.8753"/>
              <text x="563.07" font-size="14" y="303.222" fill="#000000" font-family="sans-serif" textLength="116.9971" lengthAdjust="spacing">hasName: String</text>
              <line y2="310.5238" style="stroke:#181818;stroke-width:0.5;" x1="544.07" x2="685.0671" y1="310.5238"/>
            </g>
            <!--class ResourceAllocation-->
            <g data-source-line="43" id="svg2.entity_ResourceAllocation" data-entity="ResourceAllocation" class="entity" data-uid="ent0010">
              <rect x="472.77" y="7" fill="#F1F1F1" width="209.5859" style="stroke:#181818;stroke-width:0.5;" rx="2.5" height="113.1875" ry="2.5"/>
              <ellipse rx="11" fill="#ADD1B2" ry="11" style="stroke:#181818;stroke-width:1;" cx="507.3138" cy="23"/>
              <path fill="#000000" d="M510.2825,28.6406 Q509.7044,28.9375 509.0638,29.0781 Q508.4232,29.2344 507.72,29.2344 Q505.22,29.2344 503.8919,27.5938 Q502.5794,25.9375 502.5794,22.8125 Q502.5794,19.6875 503.8919,18.0313 Q505.22,16.375 507.72,16.375 Q508.4232,16.375 509.0638,16.5313 Q509.72,16.6875 510.2825,16.9844 L510.2825,19.7031 Q509.6575,19.125 509.0638,18.8594 Q508.47,18.5781 507.845,18.5781 Q506.5013,18.5781 505.8138,19.6563 Q505.1263,20.7188 505.1263,22.8125 Q505.1263,24.9063 505.8138,25.9844 Q506.5013,27.0469 507.845,27.0469 Q508.47,27.0469 509.0638,26.7813 Q509.6575,26.5 510.2825,25.9219 L510.2825,28.6406 Z "/>
              <text x="525.6569" font-size="14" y="27.8467" fill="#000000" font-family="sans-serif" textLength="134.1553" lengthAdjust="spacing">ResourceAllocation</text>
              <line y2="39" style="stroke:#181818;stroke-width:0.5;" x1="473.77" x2="681.3559" y1="39"/>
              <ellipse rx="3" fill="none" ry="3" style="stroke:#038048;stroke-width:1;" cx="483.77" cy="52.6484"/>
              <text x="492.77" font-size="14" y="55.9951" fill="#000000" font-family="sans-serif" textLength="169.1826" lengthAdjust="spacing">budgetedUnits: Decimal</text>
              <ellipse rx="3" fill="none" ry="3" style="stroke:#038048;stroke-width:1;" cx="483.77" cy="68.9453"/>
              <text x="492.77" font-size="14" y="72.292" fill="#000000" font-family="sans-serif" textLength="145.1543" lengthAdjust="spacing">actualUnits: Decimal</text>
              <ellipse rx="3" fill="none" ry="3" style="stroke:#038048;stroke-width:1;" cx="483.77" cy="85.2422"/>
              <text x="492.77" font-size="14" y="88.5889" fill="#000000" font-family="sans-serif" textLength="173.0449" lengthAdjust="spacing">remainingUnits: Decimal</text>
              <ellipse rx="3" fill="none" ry="3" style="stroke:#038048;stroke-width:1;" cx="483.77" cy="101.5391"/>
              <text x="492.77" font-size="14" y="104.8857" fill="#000000" font-family="sans-serif" textLength="183.5859" lengthAdjust="spacing">atCompleteUnits: Decimal</text>
              <line y2="112.1875" style="stroke:#181818;stroke-width:0.5;" x1="473.77" x2="681.3559" y1="112.1875"/>
            </g>
            <!--link ResourceType to EquipmentResource-->
            <g data-entity-1="ResourceType" data-source-line="51" data-entity-2="EquipmentResource" id="svg2.link_ResourceType_EquipmentResource" class="link" data-uid="lnk11">
              <path fill="none" id="svg2.ResourceType-to-EquipmentResource" d="M93.57,509 C93.57,530.4 93.57,540.26 93.57,559.66" codeLine="51" style="stroke:#181818;stroke-width:1;"/>
              <polygon fill="none" style="stroke:#181818;stroke-width:1;" points="93.57,577.66,99.57,559.66,87.57,559.66,93.57,577.66"/>
            </g>
            <!--link Project to Resource-->
            <g data-entity-1="Project" data-source-line="54" data-entity-2="Resource" id="svg2.link_Project_Resource" class="link" data-uid="lnk12">
              <path fill="none" id="svg2.Project-Resource" d="M323.81,104.02 C322.16,123.29 321.89,146.69 326.57,167.19 C328.81,177.01 332.04,186.97 335.82,196.69" codeLine="54" style="stroke:#181818;stroke-width:1;"/>
              <text x="327.57" font-size="13" y="163.2569" fill="#000000" font-family="sans-serif" textLength="83.4653" lengthAdjust="spacing">hasResource</text>
              <text x="314.2162" font-size="13" y="124.0352" fill="#000000" font-family="sans-serif" textLength="8.271" lengthAdjust="spacing">1</text>
              <text x="294.538" font-size="13" y="186.1108" fill="#000000" font-family="sans-serif" textLength="36.5625" lengthAdjust="spacing">many</text>
            </g>
            <!--link Resource to ResourceType-->
            <g data-entity-1="Resource" data-source-line="55" data-entity-2="ResourceType" id="svg2.link_Resource_ResourceType" class="link" data-uid="lnk13">
              <path fill="none" id="svg2.Resource-ResourceType" d="M299.48,323.73 C266.83,342.81 229.17,366.02 196.57,389.27 C172.82,406.2 147.71,427.17 128.23,444.2" codeLine="55" style="stroke:#181818;stroke-width:1;"/>
              <text x="197.57" font-size="13" y="402.3369" fill="#000000" font-family="sans-serif" textLength="115.3496" lengthAdjust="spacing">hasResourceType</text>
              <text x="283.4786" font-size="13" y="324.4252" fill="#000000" font-family="sans-serif" textLength="8.271" lengthAdjust="spacing">1</text>
              <text x="126.2932" font-size="13" y="433.4328" fill="#000000" font-family="sans-serif" textLength="8.271" lengthAdjust="spacing">1</text>
            </g>
            <!--link Resource to TrackingTag-->
            <g data-entity-1="Resource" data-source-line="56" data-entity-2="TrackingTag" id="svg2.link_Resource_TrackingTag" class="link" data-uid="lnk14">
              <path fill="none" id="svg2.Resource-TrackingTag" d="M340.65,359.65 C326.31,389.3 310.88,421.19 299.84,444" codeLine="56" style="stroke:#181818;stroke-width:1;"/>
              <text x="324.57" font-size="13" y="402.3369" fill="#000000" font-family="sans-serif" textLength="103.1685" lengthAdjust="spacing">hasTrackingTag</text>
              <text x="328.9737" font-size="13" y="379.3642" fill="#000000" font-family="sans-serif" textLength="8.271" lengthAdjust="spacing">1</text>
              <text x="294.0147" font-size="13" y="433.4434" fill="#000000" font-family="sans-serif" textLength="8.271" lengthAdjust="spacing">1</text>
            </g>
            <!--link Resource to Units-->
            <g data-entity-1="Resource" data-source-line="57" data-entity-2="Units" id="svg2.link_Resource_Units" class="link" data-uid="lnk15">
              <path fill="none" id="svg2.Resource-Units" d="M421.78,359.51 C426.84,369.49 431.88,379.59 436.57,389.27 C445.31,407.32 454.58,427.76 461.89,444.22" codeLine="57" style="stroke:#181818;stroke-width:1;"/>
              <text x="445.57" font-size="13" y="402.3369" fill="#000000" font-family="sans-serif" textLength="77.3081" lengthAdjust="spacing">measuredIn</text>
              <text x="417.0758" font-size="13" y="379.2122" fill="#000000" font-family="sans-serif" textLength="8.271" lengthAdjust="spacing">1</text>
              <text x="450.4362" font-size="13" y="433.4568" fill="#000000" font-family="sans-serif" textLength="8.271" lengthAdjust="spacing">1</text>
            </g>
            <!--link Resource to ResourceConstraint-->
            <g data-entity-1="Resource" data-source-line="58" data-entity-2="ResourceConstraint" id="svg2.link_Resource_ResourceConstraint" class="link" data-uid="lnk16">
              <path fill="none" id="svg2.Resource-ResourceConstraint" d="M459.67,332.36 C508.81,364.95 570.7,406 615.6,435.79" codeLine="58" style="stroke:#181818;stroke-width:1;"/>
              <text x="564.57" font-size="13" y="402.3369" fill="#000000" font-family="sans-serif" textLength="150.8647" lengthAdjust="spacing">hasResourceConstraint</text>
              <text x="467.1727" font-size="13" y="333.5859" fill="#000000" font-family="sans-serif" textLength="8.271" lengthAdjust="spacing">1</text>
              <text x="581.2134" font-size="13" y="425.1734" fill="#000000" font-family="sans-serif" textLength="23.0356" lengthAdjust="spacing">0..*</text>
            </g>
            <!--link ResourceAllocation to Resource-->
            <g data-entity-1="ResourceAllocation" data-source-line="60" data-entity-2="Resource" id="svg2.link_ResourceAllocation_Resource" class="link" data-uid="lnk17">
              <path fill="none" id="svg2.ResourceAllocation-Resource" d="M497.7,120.48 C486.39,129.83 475.31,139.87 465.57,150.19 C452.22,164.33 439.49,180.73 428.11,196.96" codeLine="60" style="stroke:#181818;stroke-width:1;"/>
              <text x="466.57" font-size="13" y="163.2569" fill="#000000" font-family="sans-serif" textLength="118.6123" lengthAdjust="spacing">allocatesResource</text>
              <text x="479.4957" font-size="13" y="140.4021" fill="#000000" font-family="sans-serif" textLength="8.271" lengthAdjust="spacing">1</text>
              <text x="424.0894" font-size="13" y="186.1268" fill="#000000" font-family="sans-serif" textLength="8.271" lengthAdjust="spacing">1</text>
            </g>
            <!--link ResourceAllocation to Task-->
            <g data-entity-1="ResourceAllocation" data-source-line="61" data-entity-2="Task" id="svg2.link_ResourceAllocation_Task" class="link" data-uid="lnk18">
              <path fill="none" id="svg2.ResourceAllocation-Task" d="M587.29,120.46 C593.69,157.25 601.92,204.54 607.66,237.51" codeLine="61" style="stroke:#181818;stroke-width:1;"/>
              <text x="596.57" font-size="13" y="163.2569" fill="#000000" font-family="sans-serif" textLength="105.7075" lengthAdjust="spacing">allocatedToTask</text>
              <text x="580.0045" font-size="13" y="140.3796" fill="#000000" font-family="sans-serif" textLength="8.271" lengthAdjust="spacing">1</text>
              <text x="597.943" font-size="13" y="226.9029" fill="#000000" font-family="sans-serif" textLength="8.271" lengthAdjust="spacing">1</text>
            </g>
            <!--SRC=[dLB9JiCm5BpdAwnSAe5QqMka8bKjgdf1g0JkhyvJCVLIl4Y4vT-nasOZ1YGkaJEU6Rzb9cInM90L1sFGX7EIqF13xhHwHch9UqB8vHEORP6HUwkPF9o1Mn3OGf-DR8T6EKtnPzs6gptmt-qyj0U3Ex0UMoDb0dW0gTCQ9ItxHEr9wvhelm4HyFeWcJMTT5HUNfww4kETtBmuTX8eRQ-bzZBNG8-UdiEXjV7dk5DLp1-lDO-ib3HM0vFdoTFsFvJSxxkxUGJk8fOvcED_rxVaN56mJCdQOU-A0reilitLtm2r3lWOroXyRTuy8h4h9KxS-utNDAdok4696ZXxgqi8iHniRZhzk1ulg54lZL6KLT8wqasMqtdgfIGL8CkqYsf6_3nQanPksFDq69i1FI1HIJyXbQ87H0LrIZ8Y48pJM6pbc7OrcrsaiQmCQkhm98aiDDANrqDDmF4Wuj8gNPsio5L0lW00]-->
          </g>
        </svg>
      </g>
    </g>
  </g>
</svg>
