<?xml version="1.0" encoding="UTF-8"?><svg xmlns="http://www.w3.org/2000/svg" xmlns:xlink="http://www.w3.org/1999/xlink" fill-opacity="1" color-rendering="auto" color-interpolation="auto" text-rendering="auto" stroke="black" stroke-linecap="square" width="1476" stroke-miterlimit="10" shape-rendering="auto" stroke-opacity="1" fill="black" stroke-dasharray="none" font-weight="normal" stroke-width="1" height="1448" font-family="'Dialog'" font-style="normal" stroke-linejoin="miter" font-size="12px" stroke-dashoffset="0" image-rendering="auto">
  <!--Generated by ySVG 2.6-->
  <defs id="genericDefs"/>
  <g>
    <g fill="white" text-rendering="geometricPrecision" shape-rendering="geometricPrecision" transform="translate(178,808)" stroke="white">
      <rect x="-178" width="1476" height="1448" y="-808" clip-path="url(#clipPath2)" stroke="none"/>
    </g>
    <g text-rendering="geometricPrecision" shape-rendering="geometricPrecision" transform="matrix(1,0,0,1,10.4375,1227.89)">
      <g clip-path="url(#clipPath3)">
        <svg opacity="1" writing-mode="lr-tb" data-diagram-type="CLASS" stop-color="rgb(0, 0, 0)" shape-rendering="auto" glyph-orientation-horizontal="0deg" color-profile="auto" lighting-color="rgb(255, 255, 255)" contentStyleType="text/css" color="rgb(0, 0, 0)" font-weight="400" alignment-baseline="auto" font-style="normal" version="1.1" color-interpolation-filters="linearrgb" text-anchor="start" stroke-linecap="butt" color-interpolation="srgb" font-variant="normal" word-spacing="normal" fill-opacity="1" text-rendering="auto" clip-path="none" text-decoration="none" letter-spacing="normal" viewBox="0 0 1456 202" glyph-orientation-vertical="auto" display="inline" font-size-adjust="none" overflow="hidden" fill="rgb(0, 0, 0)" font-stretch="normal" stroke-dasharray="none" stroke-miterlimit="4" stop-opacity="1" color-rendering="auto" font-size="12" pointer-events="visiblepainted" mask="none" direction="ltr" baseline-shift="baseline" enable-background="accumulate" fill-rule="nonzero" zoomAndPan="magnify" image-rendering="auto" stroke-dashoffset="0" style="width:1456px;height:202px;background:#FFFFFF;" width="1456px" marker-end="none" clip="auto" cursor="auto" stroke="none" filter="none" visibility="visible" kerning="auto" stroke-width="1" font-family="&quot;Arial&quot;,&quot;Helvetica&quot;,sans-serif" preserveAspectRatio="none" flood-opacity="1" clip-rule="nonzero" src="none" height="202px" unicode-bidi="normal" stroke-linejoin="miter" stroke-opacity="1" flood-color="rgb(0, 0, 0)" dominant-baseline="auto" marker-start="none" marker-mid="none">
          <defs>
            <clipPath clipPathUnits="userSpaceOnUse" id="clipPath1">
              <path d="M0 0 L1476 0 L1476 1448 L0 1448 L0 0 Z"/>
            </clipPath>
            <clipPath clipPathUnits="userSpaceOnUse" id="clipPath2">
              <path d="M-178 -808 L1298 -808 L1298 640 L-178 640 L-178 -808 Z"/>
            </clipPath>
            <clipPath clipPathUnits="userSpaceOnUse" id="clipPath3">
              <path d="M-10.4375 -1227.89 L1465.5625 -1227.89 L1465.5625 220.11 L-10.4375 220.11 L-10.4375 -1227.89 Z"/>
            </clipPath>
            <clipPath clipPathUnits="userSpaceOnUse" id="clipPath4">
              <path d="M-12.6572 -5.5253 L1112.7456 -5.5253 L1112.7456 1151.3584 L-12.6572 1151.3584 L-12.6572 -5.5253 Z"/>
            </clipPath>
          </defs>
          <g>
            <!--cluster Legend-->
            <g data-source-line="3" id="svg1.cluster_Legend" data-entity="Legend" class="cluster" data-uid="ent0002">
              <path fill="none" style="stroke:#000000;stroke-width:1.5;" d="M8.5,80.16 L67.4209,80.16 A3.75,3.75 0 0 1 69.9209,82.66 L76.9209,102.4569 L1446.5,102.4569 A2.5,2.5 0 0 1 1449,104.9569 L1449,192.96 A2.5,2.5 0 0 1 1446.5,195.46 L8.5,195.46 A2.5,2.5 0 0 1 6,192.96 L6,82.66 A2.5,2.5 0 0 1 8.5,80.16"/>
              <line y2="102.4569" style="stroke:#000000;stroke-width:1.5;" x1="6" x2="76.9209" y1="102.4569"/>
              <text x="10" font-size="14" y="95.1551" fill="#000000" font-family="sans-serif" font-weight="bold" textLength="57.9209" lengthAdjust="spacing">Legend</text>
            </g>
            <!--class CL-->
            <g data-source-line="4" id="svg1.entity_CL" data-entity="CL" class="entity" data-uid="ent0003">
              <rect x="21.72" y="115.16" fill="#F1F1F1" width="130.5693" style="stroke:#181818;stroke-width:0.5;" rx="2.5" height="64.2969" ry="2.5"/>
              <ellipse rx="11" fill="#ADD1B2" ry="11" style="stroke:#181818;stroke-width:1;" cx="64.5018" cy="131.16"/>
              <path fill="#000000" d="M67.4705,136.8006 Q66.8924,137.0975 66.2518,137.2381 Q65.6112,137.3944 64.908,137.3944 Q62.408,137.3944 61.0799,135.7538 Q59.7674,134.0975 59.7674,130.9725 Q59.7674,127.8475 61.0799,126.1913 Q62.408,124.535 64.908,124.535 Q65.6112,124.535 66.2518,124.6913 Q66.908,124.8475 67.4705,125.1444 L67.4705,127.8631 Q66.8455,127.285 66.2518,127.0194 Q65.658,126.7381 65.033,126.7381 Q63.6893,126.7381 63.0018,127.8163 Q62.3143,128.8788 62.3143,130.9725 Q62.3143,133.0663 63.0018,134.1444 Q63.6893,135.2069 65.033,135.2069 Q65.658,135.2069 66.2518,134.9413 Q66.8455,134.66 67.4705,134.0819 L67.4705,136.8006 Z "/>
              <text x="84.6755" font-size="14" y="136.0067" fill="#000000" font-family="sans-serif" textLength="36.832" lengthAdjust="spacing">Class</text>
              <line y2="147.16" style="stroke:#181818;stroke-width:0.5;" x1="22.72" x2="151.2893" y1="147.16"/>
              <ellipse rx="3" fill="none" ry="3" style="stroke:#038048;stroke-width:1;" cx="32.72" cy="160.8084"/>
              <text x="41.72" font-size="14" y="164.1551" fill="#000000" font-family="sans-serif" textLength="104.5693" lengthAdjust="spacing">attribute: Type</text>
              <line y2="171.4569" style="stroke:#181818;stroke-width:0.5;" x1="22.72" x2="151.2893" y1="171.4569"/>
            </g>
            <g data-source-line="6" id="svg1.entity_GMN4" data-entity="GMN4" class="entity" data-uid="ent0005">
              <path fill="#FEFFDD" style="stroke:#181818;stroke-width:0.5;" d="M429.55,119.61 L429.55,175.0084 L676.4567,175.0084 L676.4567,129.61 L666.4567,119.61 L429.55,119.61"/>
              <path fill="#FEFFDD" style="stroke:#181818;stroke-width:1;" d="M666.4567,119.61 L666.4567,129.61 L676.4567,129.61 L666.4567,119.61"/>
              <text x="435.55" font-size="13" y="136.6769" fill="#000000" font-family="sans-serif" textLength="178.5913" lengthAdjust="spacing">Rectangle with class name.</text>
              <text x="435.55" font-size="13" y="151.8097" fill="#000000" font-family="sans-serif" textLength="225.9067" lengthAdjust="spacing">Represents an entity in the model,</text>
              <text x="435.55" font-size="13" y="166.9425" fill="#000000" font-family="sans-serif" textLength="202.6299" lengthAdjust="spacing">e.g., Task, CostItem, Resource.</text>
            </g>
            <path fill="#FEFFDD" style="stroke:#181818;stroke-width:0.5;" d="M187.5,122.18 L187.5,138.3128 L146.2893,159.3084 L187.5,146.3128 L187.5,162.4456 A0,0 0 0 0 187.5,162.4456 L394.5054,162.4456 A0,0 0 0 0 394.5054,162.4456 L394.5054,132.18 L384.5054,122.18 L187.5,122.18 A0,0 0 0 0 187.5,122.18"/>
            <path fill="#FEFFDD" style="stroke:#181818;stroke-width:0.5;" d="M384.5054,122.18 L384.5054,132.18 L394.5054,132.18 L384.5054,122.18"/>
            <text x="193.5" font-size="13" y="139.2469" fill="#000000" font-family="sans-serif" textLength="186.0054" lengthAdjust="spacing">Attributes or data properties</text>
            <text x="193.5" font-size="13" y="154.3797" fill="#000000" font-family="sans-serif" textLength="78.5332" lengthAdjust="spacing">of the class.</text>
            <!--class Rel1-->
            <g data-source-line="18" id="svg1.entity_Rel1" data-entity="Rel1" class="entity" data-uid="ent0009">
              <rect x="711.04" y="123.31" fill="#F1F1F1" width="81.916" style="stroke:#181818;stroke-width:0.5;" rx="2.5" height="48" ry="2.5"/>
              <ellipse rx="11" fill="#ADD1B2" ry="11" style="stroke:#181818;stroke-width:1;" cx="726.04" cy="139.31"/>
              <path fill="#000000" d="M729.0088,144.9506 Q728.4306,145.2475 727.79,145.3881 Q727.1494,145.5444 726.4463,145.5444 Q723.9463,145.5444 722.6181,143.9038 Q721.3056,142.2475 721.3056,139.1225 Q721.3056,135.9975 722.6181,134.3413 Q723.9463,132.685 726.4463,132.685 Q727.1494,132.685 727.79,132.8413 Q728.4463,132.9975 729.0088,133.2944 L729.0088,136.0131 Q728.3838,135.435 727.79,135.1694 Q727.1963,134.8881 726.5713,134.8881 Q725.2275,134.8881 724.54,135.9663 Q723.8525,137.0288 723.8525,139.1225 Q723.8525,141.2163 724.54,142.2944 Q725.2275,143.3569 726.5713,143.3569 Q727.1963,143.3569 727.79,143.0913 Q728.3838,142.81 729.0088,142.2319 L729.0088,144.9506 Z "/>
              <text x="740.04" font-size="14" y="144.1567" fill="#000000" font-family="sans-serif" textLength="49.916" lengthAdjust="spacing">A --&gt; B</text>
              <line y2="155.31" style="stroke:#181818;stroke-width:0.5;" x1="712.04" x2="791.956" y1="155.31"/>
              <line y2="163.31" style="stroke:#181818;stroke-width:0.5;" x1="712.04" x2="791.956" y1="163.31"/>
            </g>
            <g data-source-line="20" id="svg1.entity_GMN10" data-entity="GMN10" class="entity" data-uid="ent0011">
              <path fill="#FEFFDD" style="stroke:#181818;stroke-width:0.5;" d="M827.76,119.61 L827.76,143.31 L793.13,147.31 L827.76,151.31 L827.76,175.0084 A0,0 0 0 0 827.76,175.0084 L1066.2497,175.0084 A0,0 0 0 0 1066.2497,175.0084 L1066.2497,129.61 L1056.2497,119.61 L827.76,119.61 A0,0 0 0 0 827.76,119.61"/>
              <path fill="#FEFFDD" style="stroke:#181818;stroke-width:0.5;" d="M1056.2497,119.61 L1056.2497,129.61 L1066.2497,129.61 L1056.2497,119.61"/>
              <text x="833.76" font-size="13" y="136.6769" fill="#000000" font-family="sans-serif" textLength="136.7412" lengthAdjust="spacing">Solid line with arrow:</text>
              <text x="833.76" font-size="13" y="151.8097" fill="#000000" font-family="sans-serif" textLength="217.4897" lengthAdjust="spacing">Association between two classes.</text>
              <text x="833.76" font-size="13" y="166.9425" fill="#000000" font-family="sans-serif" textLength="208.9966" lengthAdjust="spacing">Labeled with relationship name.</text>
            </g>
            <!--class Inh-->
            <g data-source-line="25" id="svg1.entity_Inh" data-entity="Inh" class="entity" data-uid="ent0013">
              <rect x="1101.68" y="123.31" fill="#F1F1F1" width="86.6328" style="stroke:#181818;stroke-width:0.5;" rx="2.5" height="48" ry="2.5"/>
              <ellipse rx="11" fill="#ADD1B2" ry="11" style="stroke:#181818;stroke-width:1;" cx="1116.68" cy="139.31"/>
              <path fill="#000000" d="M1119.6488,144.9506 Q1119.0706,145.2475 1118.43,145.3881 Q1117.7894,145.5444 1117.0863,145.5444 Q1114.5863,145.5444 1113.2581,143.9038 Q1111.9456,142.2475 1111.9456,139.1225 Q1111.9456,135.9975 1113.2581,134.3413 Q1114.5863,132.685 1117.0863,132.685 Q1117.7894,132.685 1118.43,132.8413 Q1119.0863,132.9975 1119.6488,133.2944 L1119.6488,136.0131 Q1119.0238,135.435 1118.43,135.1694 Q1117.8363,134.8881 1117.2113,134.8881 Q1115.8675,134.8881 1115.18,135.9663 Q1114.4925,137.0288 1114.4925,139.1225 Q1114.4925,141.2163 1115.18,142.2944 Q1115.8675,143.3569 1117.2113,143.3569 Q1117.8363,143.3569 1118.43,143.0913 Q1119.0238,142.81 1119.6488,142.2319 L1119.6488,144.9506 Z "/>
              <text x="1130.68" font-size="14" y="144.1567" fill="#000000" font-family="sans-serif" textLength="54.6328" lengthAdjust="spacing">A --|&gt; B</text>
              <line y2="155.31" style="stroke:#181818;stroke-width:0.5;" x1="1102.68" x2="1187.3128" y1="155.31"/>
              <line y2="163.31" style="stroke:#181818;stroke-width:0.5;" x1="1102.68" x2="1187.3128" y1="163.31"/>
            </g>
            <g data-source-line="27" id="svg1.entity_GMN14" data-entity="GMN14" class="entity" data-uid="ent0015">
              <path fill="#FEFFDD" style="stroke:#181818;stroke-width:0.5;" d="M1223.46,119.61 L1223.46,143.31 L1188.61,147.31 L1223.46,151.31 L1223.46,175.0084 A0,0 0 0 0 1223.46,175.0084 L1432.5347,175.0084 A0,0 0 0 0 1432.5347,175.0084 L1432.5347,129.61 L1422.5347,119.61 L1223.46,119.61 A0,0 0 0 0 1223.46,119.61"/>
              <path fill="#FEFFDD" style="stroke:#181818;stroke-width:0.5;" d="M1422.5347,119.61 L1422.5347,129.61 L1432.5347,129.61 L1422.5347,119.61"/>
              <text x="1229.46" font-size="13" y="136.6769" fill="#000000" font-family="sans-serif" textLength="89.2925" lengthAdjust="spacing">Hollow arrow:</text>
              <text x="1229.46" font-size="13" y="151.8097" fill="#000000" font-family="sans-serif" textLength="188.0747" lengthAdjust="spacing">Inheritance or specialization.</text>
              <text x="1229.46" font-size="13" y="166.9425" fill="#000000" font-family="sans-serif" textLength="116.9238" lengthAdjust="spacing">A is subclass of B.</text>
            </g>
            <!--link CL to GMN4-->
            <g data-entity-1="CL" data-source-line="6" data-entity-2="GMN4" id="svg1.link_CL_GMN4" class="link" data-uid="lnk6">
              <path fill="none" d="M107.22,114.8 C124.91,89.7 153.14,56.85 187.5,42.16 C272.09,6 306.42,15.6 394.5,42.16 C444.29,57.18 492.81,93.52 522.78,119.26" id="svg1.CL-GMN4" style="stroke:#181818;stroke-width:1;stroke-dasharray:7.0,7.0;"/>
            </g>
            <!--SRC=[TP7BRi8m44Nt-OghRBfeGEes4fKWHIrIr0Nb1vnacbWOE_8OHVJnxtNiW5fGLnxFwnvVts6nMA1SFwzVdyOmINfHxqLBI4jgIJSfFXEWLe8PQJ4UAGIZA7rM6qUmikqSp7jC0LkgdT2j8WpITTEa5WUQJ-NU4fDs3A7XJ-bEa1gk8nnCGoeBRJHlvnbsWlSP2iDku-YG-M4sHrk7LPuj02G-Bahak1VEMLaT7UNOdVfGk2RCyqjJa5cURmnZqGWdq5lJatMIE7JuiH4jFEDQTd9bYTdi4QlWovRKmutkb0JUZ98DbDIJES9QC-IHXDdKKZXfD2fo0v7tP31HWpYQLugA53Lns98AxTp9_cBmFtXVPxwDxcxmOWvuCKgPuJUKhv2L_Zjh6ltXdZoYaXz1Do8j8HbyhAAOtxRwW_7z0m00]-->
          </g>
        </svg>
      </g>
    </g>
    <g text-rendering="geometricPrecision" shape-rendering="geometricPrecision" transform="matrix(1.3115,0,0,1.2516,16.6003,6.9156)">
      <g clip-path="url(#clipPath4)">
        <svg opacity="1" writing-mode="lr-tb" data-diagram-type="CLASS" stop-color="rgb(0, 0, 0)" shape-rendering="auto" glyph-orientation-horizontal="0deg" color-profile="auto" lighting-color="rgb(255, 255, 255)" contentStyleType="text/css" color="rgb(0, 0, 0)" font-weight="400" alignment-baseline="auto" font-style="normal" version="1.1" color-interpolation-filters="linearrgb" text-anchor="start" stroke-linecap="butt" color-interpolation="srgb" font-variant="normal" word-spacing="normal" fill-opacity="1" text-rendering="auto" clip-path="none" text-decoration="none" letter-spacing="normal" viewBox="0 0 1107 996" glyph-orientation-vertical="auto" display="inline" font-size-adjust="none" overflow="hidden" fill="rgb(0, 0, 0)" font-stretch="normal" stroke-dasharray="none" stroke-miterlimit="4" stop-opacity="1" color-rendering="auto" font-size="12" pointer-events="visiblepainted" mask="none" direction="ltr" baseline-shift="baseline" enable-background="accumulate" fill-rule="nonzero" zoomAndPan="magnify" image-rendering="auto" stroke-dashoffset="0" style="width:1107px;height:996px;background:#FFFFFF;" width="1107px" marker-end="none" clip="auto" cursor="auto" stroke="none" filter="none" visibility="visible" kerning="auto" stroke-width="1" font-family="&quot;Arial&quot;,&quot;Helvetica&quot;,sans-serif" preserveAspectRatio="none" flood-opacity="1" clip-rule="nonzero" src="none" height="996px" unicode-bidi="normal" stroke-linejoin="miter" stroke-opacity="1" flood-color="rgb(0, 0, 0)" dominant-baseline="auto" marker-start="none" marker-mid="none">
          <defs/>
          <g>
            <!--class Project-->
            <g data-source-line="2" id="svg2.entity_Project" data-entity="Project" class="entity" data-uid="ent0002">
              <rect x="235.89" y="7" fill="#F1F1F1" width="189.7959" style="stroke:#181818;stroke-width:0.5;" rx="2.5" height="113.1875" ry="2.5"/>
              <ellipse rx="11" fill="#ADD1B2" ry="11" style="stroke:#181818;stroke-width:1;" cx="302.3114" cy="23"/>
              <path fill="#000000" d="M305.2801,28.6406 Q304.702,28.9375 304.0614,29.0781 Q303.4208,29.2344 302.7176,29.2344 Q300.2176,29.2344 298.8895,27.5938 Q297.577,25.9375 297.577,22.8125 Q297.577,19.6875 298.8895,18.0313 Q300.2176,16.375 302.7176,16.375 Q303.4208,16.375 304.0614,16.5313 Q304.7176,16.6875 305.2801,16.9844 L305.2801,19.7031 Q304.6551,19.125 304.0614,18.8594 Q303.4676,18.5781 302.8426,18.5781 Q301.4989,18.5781 300.8114,19.6563 Q300.1239,20.7188 300.1239,22.8125 Q300.1239,24.9063 300.8114,25.9844 Q301.4989,27.0469 302.8426,27.0469 Q303.4676,27.0469 304.0614,26.7813 Q304.6551,26.5 305.2801,25.9219 L305.2801,28.6406 Z "/>
              <text x="322.8114" font-size="14" y="27.8467" fill="#000000" font-family="sans-serif" textLength="48.4531" lengthAdjust="spacing">Project</text>
              <line y2="39" style="stroke:#181818;stroke-width:0.5;" x1="236.89" x2="424.6859" y1="39"/>
              <ellipse rx="3" fill="none" ry="3" style="stroke:#038048;stroke-width:1;" cx="246.89" cy="52.6484"/>
              <text x="255.89" font-size="14" y="55.9951" fill="#000000" font-family="sans-serif" textLength="88.71" lengthAdjust="spacing">hasId: String</text>
              <ellipse rx="3" fill="none" ry="3" style="stroke:#038048;stroke-width:1;" cx="246.89" cy="68.9453"/>
              <text x="255.89" font-size="14" y="72.292" fill="#000000" font-family="sans-serif" textLength="116.9971" lengthAdjust="spacing">hasName: String</text>
              <ellipse rx="3" fill="none" ry="3" style="stroke:#038048;stroke-width:1;" cx="246.89" cy="85.2422"/>
              <text x="255.89" font-size="14" y="88.5889" fill="#000000" font-family="sans-serif" textLength="163.7959" lengthAdjust="spacing">projectCategory: String</text>
              <ellipse rx="3" fill="none" ry="3" style="stroke:#038048;stroke-width:1;" cx="246.89" cy="101.5391"/>
              <text x="255.89" font-size="14" y="104.8857" fill="#000000" font-family="sans-serif" textLength="145.5576" lengthAdjust="spacing">projectOwner: String</text>
              <line y2="112.1875" style="stroke:#181818;stroke-width:0.5;" x1="236.89" x2="424.6859" y1="112.1875"/>
            </g>
            <!--class WorkPackage-->
            <g data-source-line="9" id="svg2.entity_WorkPackage" data-entity="WorkPackage" class="entity" data-uid="ent0003">
              <rect x="259.29" y="197.19" fill="#F1F1F1" width="142.9971" style="stroke:#181818;stroke-width:0.5;" rx="2.5" height="80.5938" ry="2.5"/>
              <ellipse rx="11" fill="#ADD1B2" ry="11" style="stroke:#181818;stroke-width:1;" cx="281.4091" cy="213.19"/>
              <path fill="#000000" d="M284.3779,218.8306 Q283.7998,219.1275 283.1591,219.2681 Q282.5185,219.4244 281.8154,219.4244 Q279.3154,219.4244 277.9873,217.7837 Q276.6748,216.1275 276.6748,213.0025 Q276.6748,209.8775 277.9873,208.2212 Q279.3154,206.565 281.8154,206.565 Q282.5185,206.565 283.1591,206.7212 Q283.8154,206.8775 284.3779,207.1744 L284.3779,209.8931 Q283.7529,209.315 283.1591,209.0494 Q282.5654,208.7681 281.9404,208.7681 Q280.5966,208.7681 279.9091,209.8462 Q279.2216,210.9087 279.2216,213.0025 Q279.2216,215.0962 279.9091,216.1744 Q280.5966,217.2369 281.9404,217.2369 Q282.5654,217.2369 283.1591,216.9712 Q283.7529,216.69 284.3779,216.1119 L284.3779,218.8306 Z "/>
              <text x="296.9912" font-size="14" y="218.0367" fill="#000000" font-family="sans-serif" textLength="95.1768" lengthAdjust="spacing">WorkPackage</text>
              <line y2="229.19" style="stroke:#181818;stroke-width:0.5;" x1="260.29" x2="401.2871" y1="229.19"/>
              <ellipse rx="3" fill="none" ry="3" style="stroke:#038048;stroke-width:1;" cx="270.29" cy="242.8384"/>
              <text x="279.29" font-size="14" y="246.1851" fill="#000000" font-family="sans-serif" textLength="88.71" lengthAdjust="spacing">hasId: String</text>
              <ellipse rx="3" fill="none" ry="3" style="stroke:#038048;stroke-width:1;" cx="270.29" cy="259.1353"/>
              <text x="279.29" font-size="14" y="262.482" fill="#000000" font-family="sans-serif" textLength="116.9971" lengthAdjust="spacing">hasName: String</text>
              <line y2="269.7837" style="stroke:#181818;stroke-width:0.5;" x1="260.29" x2="401.2871" y1="269.7837"/>
            </g>
            <!--class Actor-->
            <g data-source-line="14" id="svg2.entity_Actor" data-entity="Actor" class="entity" data-uid="ent0004">
              <rect x="202.29" y="354.78" fill="#F1F1F1" width="142.9971" style="stroke:#181818;stroke-width:0.5;" rx="2.5" height="80.5938" ry="2.5"/>
              <ellipse rx="11" fill="#ADD1B2" ry="11" style="stroke:#181818;stroke-width:1;" cx="250.9961" cy="370.78"/>
              <path fill="#000000" d="M253.9648,376.4206 Q253.3867,376.7175 252.7461,376.8581 Q252.1054,377.0144 251.4023,377.0144 Q248.9023,377.0144 247.5742,375.3738 Q246.2617,373.7175 246.2617,370.5925 Q246.2617,367.4675 247.5742,365.8113 Q248.9023,364.155 251.4023,364.155 Q252.1054,364.155 252.7461,364.3113 Q253.4023,364.4675 253.9648,364.7644 L253.9648,367.4831 Q253.3398,366.905 252.7461,366.6394 Q252.1523,366.3581 251.5273,366.3581 Q250.1836,366.3581 249.4961,367.4363 Q248.8086,368.4988 248.8086,370.5925 Q248.8086,372.6863 249.4961,373.7644 Q250.1836,374.8269 251.5273,374.8269 Q252.1523,374.8269 252.7461,374.5613 Q253.3398,374.28 253.9648,373.7019 L253.9648,376.4206 Z "/>
              <text x="271.4961" font-size="14" y="375.6267" fill="#000000" font-family="sans-serif" textLength="37.085" lengthAdjust="spacing">Actor</text>
              <line y2="386.78" style="stroke:#181818;stroke-width:0.5;" x1="203.29" x2="344.2871" y1="386.78"/>
              <ellipse rx="3" fill="none" ry="3" style="stroke:#038048;stroke-width:1;" cx="213.29" cy="400.4284"/>
              <text x="222.29" font-size="14" y="403.7751" fill="#000000" font-family="sans-serif" textLength="88.71" lengthAdjust="spacing">hasId: String</text>
              <ellipse rx="3" fill="none" ry="3" style="stroke:#038048;stroke-width:1;" cx="213.29" cy="416.7253"/>
              <text x="222.29" font-size="14" y="420.072" fill="#000000" font-family="sans-serif" textLength="116.9971" lengthAdjust="spacing">hasName: String</text>
              <line y2="427.3738" style="stroke:#181818;stroke-width:0.5;" x1="203.29" x2="344.2871" y1="427.3738"/>
            </g>
            <!--class WBS_Element-->
            <g data-source-line="19" id="svg2.entity_WBS_Element" data-entity="WBS_Element" class="entity" data-uid="ent0005">
              <rect x="380.73" y="354.78" fill="#F1F1F1" width="152.123" style="stroke:#181818;stroke-width:0.5;" rx="2.5" height="80.5938" ry="2.5"/>
              <ellipse rx="11" fill="#ADD1B2" ry="11" style="stroke:#181818;stroke-width:1;" cx="406.0022" cy="370.78"/>
              <path fill="#000000" d="M408.971,376.4206 Q408.3928,376.7175 407.7522,376.8581 Q407.1116,377.0144 406.4085,377.0144 Q403.9085,377.0144 402.5803,375.3738 Q401.2678,373.7175 401.2678,370.5925 Q401.2678,367.4675 402.5803,365.8113 Q403.9085,364.155 406.4085,364.155 Q407.1116,364.155 407.7522,364.3113 Q408.4085,364.4675 408.971,364.7644 L408.971,367.4831 Q408.346,366.905 407.7522,366.6394 Q407.1585,366.3581 406.5335,366.3581 Q405.1897,366.3581 404.5022,367.4363 Q403.8147,368.4988 403.8147,370.5925 Q403.8147,372.6863 404.5022,373.7644 Q405.1897,374.8269 406.5335,374.8269 Q407.1585,374.8269 407.7522,374.5613 Q408.346,374.28 408.971,373.7019 L408.971,376.4206 Z "/>
              <text x="422.2849" font-size="14" y="375.6267" fill="#000000" font-family="sans-serif" textLength="97.2959" lengthAdjust="spacing">WBS_Element</text>
              <line y2="386.78" style="stroke:#181818;stroke-width:0.5;" x1="381.73" x2="531.853" y1="386.78"/>
              <ellipse rx="3" fill="none" ry="3" style="stroke:#038048;stroke-width:1;" cx="391.73" cy="400.4284"/>
              <text x="400.73" font-size="14" y="403.7751" fill="#000000" font-family="sans-serif" textLength="126.123" lengthAdjust="spacing">WBS_Code: String</text>
              <ellipse rx="3" fill="none" ry="3" style="stroke:#038048;stroke-width:1;" cx="391.73" cy="416.7253"/>
              <text x="400.73" font-size="14" y="420.072" fill="#000000" font-family="sans-serif" textLength="116.9971" lengthAdjust="spacing">hasName: String</text>
              <line y2="427.3738" style="stroke:#181818;stroke-width:0.5;" x1="381.73" x2="531.853" y1="427.3738"/>
            </g>
            <!--class Task-->
            <g data-source-line="24" id="svg2.entity_Task" data-entity="Task" class="entity" data-uid="ent0006">
              <rect x="363.23" y="512.37" fill="#F1F1F1" width="187.1162" style="stroke:#181818;stroke-width:0.5;" rx="2.5" height="178.375" ry="2.5"/>
              <ellipse rx="11" fill="#ADD1B2" ry="11" style="stroke:#181818;stroke-width:1;" cx="436.272" cy="528.37"/>
              <path fill="#000000" d="M439.2407,534.0106 Q438.6626,534.3075 438.022,534.4481 Q437.3814,534.6044 436.6782,534.6044 Q434.1782,534.6044 432.8501,532.9638 Q431.5376,531.3075 431.5376,528.1825 Q431.5376,525.0575 432.8501,523.4013 Q434.1782,521.745 436.6782,521.745 Q437.3814,521.745 438.022,521.9013 Q438.6782,522.0575 439.2407,522.3544 L439.2407,525.0731 Q438.6157,524.495 438.022,524.2294 Q437.4282,523.9481 436.8032,523.9481 Q435.4595,523.9481 434.772,525.0263 Q434.0845,526.0888 434.0845,528.1825 Q434.0845,530.2763 434.772,531.3544 Q435.4595,532.4169 436.8032,532.4169 Q437.4282,532.4169 438.022,532.1513 Q438.6157,531.87 439.2407,531.2919 L439.2407,534.0106 Z "/>
              <text x="456.772" font-size="14" y="533.2167" fill="#000000" font-family="sans-serif" textLength="32.5322" lengthAdjust="spacing">Task</text>
              <line y2="544.37" style="stroke:#181818;stroke-width:0.5;" x1="364.23" x2="549.3462" y1="544.37"/>
              <ellipse rx="3" fill="none" ry="3" style="stroke:#038048;stroke-width:1;" cx="374.23" cy="558.0184"/>
              <text x="383.23" font-size="14" y="561.3651" fill="#000000" font-family="sans-serif" textLength="88.71" lengthAdjust="spacing">hasId: String</text>
              <ellipse rx="3" fill="none" ry="3" style="stroke:#038048;stroke-width:1;" cx="374.23" cy="574.3153"/>
              <text x="383.23" font-size="14" y="577.662" fill="#000000" font-family="sans-serif" textLength="133.3691" lengthAdjust="spacing">hasGlobalId: String</text>
              <ellipse rx="3" fill="none" ry="3" style="stroke:#038048;stroke-width:1;" cx="374.23" cy="590.6122"/>
              <text x="383.23" font-size="14" y="593.9589" fill="#000000" font-family="sans-serif" textLength="116.9971" lengthAdjust="spacing">hasName: String</text>
              <ellipse rx="3" fill="none" ry="3" style="stroke:#038048;stroke-width:1;" cx="374.23" cy="606.9091"/>
              <text x="383.23" font-size="14" y="610.2557" fill="#000000" font-family="sans-serif" textLength="155.4287" lengthAdjust="spacing">hasDescription: String</text>
              <ellipse rx="3" fill="none" ry="3" style="stroke:#038048;stroke-width:1;" cx="374.23" cy="623.2059"/>
              <text x="383.23" font-size="14" y="626.5526" fill="#000000" font-family="sans-serif" textLength="106.9619" lengthAdjust="spacing">taskPriority: int</text>
              <ellipse rx="3" fill="none" ry="3" style="stroke:#038048;stroke-width:1;" cx="374.23" cy="639.5028"/>
              <text x="383.23" font-size="14" y="642.8495" fill="#000000" font-family="sans-serif" textLength="158.5391" lengthAdjust="spacing">isCriticalTask: Boolean</text>
              <ellipse rx="3" fill="none" ry="3" style="stroke:#038048;stroke-width:1;" cx="374.23" cy="655.7997"/>
              <text x="383.23" font-size="14" y="659.1464" fill="#000000" font-family="sans-serif" textLength="144.3477" lengthAdjust="spacing">isMilestone: Boolean</text>
              <ellipse rx="3" fill="none" ry="3" style="stroke:#038048;stroke-width:1;" cx="374.23" cy="672.0966"/>
              <text x="383.23" font-size="14" y="675.4432" fill="#000000" font-family="sans-serif" textLength="161.1162" lengthAdjust="spacing">milestoneName: String</text>
              <line y2="682.745" style="stroke:#181818;stroke-width:0.5;" x1="364.23" x2="549.3462" y1="682.745"/>
            </g>
            <!--class TaskTime-->
            <g data-source-line="35" id="svg2.entity_TaskTime" data-entity="TaskTime" class="entity" data-uid="ent0007">
              <rect x="7" y="775.9" fill="#F1F1F1" width="227.585" style="stroke:#181818;stroke-width:0.5;" rx="2.5" height="80.5938" ry="2.5"/>
              <ellipse rx="11" fill="#ADD1B2" ry="11" style="stroke:#181818;stroke-width:1;" cx="82.9302" cy="791.9"/>
              <path fill="#000000" d="M85.8989,797.5406 Q85.3208,797.8375 84.6802,797.9781 Q84.0396,798.1344 83.3364,798.1344 Q80.8364,798.1344 79.5083,796.4938 Q78.1958,794.8375 78.1958,791.7125 Q78.1958,788.5875 79.5083,786.9313 Q80.8364,785.275 83.3364,785.275 Q84.0396,785.275 84.6802,785.4313 Q85.3364,785.5875 85.8989,785.8844 L85.8989,788.6031 Q85.2739,788.025 84.6802,787.7594 Q84.0864,787.4781 83.4614,787.4781 Q82.1177,787.4781 81.4302,788.5563 Q80.7427,789.6188 80.7427,791.7125 Q80.7427,793.8063 81.4302,794.8844 Q82.1177,795.9469 83.4614,795.9469 Q84.0864,795.9469 84.6802,795.6813 Q85.2739,795.4 85.8989,794.8219 L85.8989,797.5406 Z "/>
              <text x="103.4302" font-size="14" y="796.7467" fill="#000000" font-family="sans-serif" textLength="67.2246" lengthAdjust="spacing">TaskTime</text>
              <line y2="807.9" style="stroke:#181818;stroke-width:0.5;" x1="8" x2="233.585" y1="807.9"/>
              <ellipse rx="3" fill="none" ry="3" style="stroke:#038048;stroke-width:1;" cx="18" cy="821.5484"/>
              <text x="27" font-size="14" y="824.8951" fill="#000000" font-family="sans-serif" textLength="201.585" lengthAdjust="spacing">plannedStartDate: DateTime</text>
              <ellipse rx="3" fill="none" ry="3" style="stroke:#038048;stroke-width:1;" cx="18" cy="837.8453"/>
              <text x="27" font-size="14" y="841.192" fill="#000000" font-family="sans-serif" textLength="193.5186" lengthAdjust="spacing">scheduleDuration: Duration</text>
              <line y2="848.4938" style="stroke:#181818;stroke-width:0.5;" x1="8" x2="233.585" y1="848.4938"/>
            </g>
            <!--class Calendar-->
            <g data-source-line="40" id="svg2.entity_Calendar" data-entity="Calendar" class="entity" data-uid="ent0008">
              <rect x="73.32" y="941.64" fill="#F1F1F1" width="94.9521" style="stroke:#181818;stroke-width:0.5;" rx="2.5" height="48" ry="2.5"/>
              <ellipse rx="11" fill="#ADD1B2" ry="11" style="stroke:#181818;stroke-width:1;" cx="88.32" cy="957.64"/>
              <path fill="#000000" d="M91.2888,963.2806 Q90.7106,963.5775 90.07,963.7181 Q89.4294,963.8744 88.7263,963.8744 Q86.2263,963.8744 84.8981,962.2338 Q83.5856,960.5775 83.5856,957.4525 Q83.5856,954.3275 84.8981,952.6713 Q86.2263,951.015 88.7263,951.015 Q89.4294,951.015 90.07,951.1713 Q90.7263,951.3275 91.2888,951.6244 L91.2888,954.3431 Q90.6638,953.765 90.07,953.4994 Q89.4763,953.2181 88.8513,953.2181 Q87.5075,953.2181 86.82,954.2963 Q86.1325,955.3588 86.1325,957.4525 Q86.1325,959.5463 86.82,960.6244 Q87.5075,961.6869 88.8513,961.6869 Q89.4763,961.6869 90.07,961.4213 Q90.6638,961.14 91.2888,960.5619 L91.2888,963.2806 Z "/>
              <text x="102.32" font-size="14" y="962.4867" fill="#000000" font-family="sans-serif" textLength="62.9521" lengthAdjust="spacing">Calendar</text>
              <line y2="973.64" style="stroke:#181818;stroke-width:0.5;" x1="74.32" x2="167.2721" y1="973.64"/>
              <line y2="981.64" style="stroke:#181818;stroke-width:0.5;" x1="74.32" x2="167.2721" y1="981.64"/>
            </g>
            <!--class TaskDependency-->
            <g data-source-line="43" id="svg2.entity_TaskDependency" data-entity="TaskDependency" class="entity" data-uid="ent0009">
              <rect x="343.13" y="767.75" fill="#F1F1F1" width="227.3252" style="stroke:#181818;stroke-width:0.5;" rx="2.5" height="96.8906" ry="2.5"/>
              <ellipse rx="11" fill="#ADD1B2" ry="11" style="stroke:#181818;stroke-width:1;" cx="392.2154" cy="783.75"/>
              <path fill="#000000" d="M395.1842,789.3906 Q394.6061,789.6875 393.9654,789.8281 Q393.3248,789.9844 392.6217,789.9844 Q390.1217,789.9844 388.7936,788.3438 Q387.4811,786.6875 387.4811,783.5625 Q387.4811,780.4375 388.7936,778.7813 Q390.1217,777.125 392.6217,777.125 Q393.3248,777.125 393.9654,777.2813 Q394.6217,777.4375 395.1842,777.7344 L395.1842,780.4531 Q394.5592,779.875 393.9654,779.6094 Q393.3717,779.3281 392.7467,779.3281 Q391.4029,779.3281 390.7154,780.4063 Q390.0279,781.4688 390.0279,783.5625 Q390.0279,785.6563 390.7154,786.7344 Q391.4029,787.7969 392.7467,787.7969 Q393.3717,787.7969 393.9654,787.5313 Q394.5592,787.25 395.1842,786.6719 L395.1842,789.3906 Z "/>
              <text x="412.7154" font-size="14" y="788.5967" fill="#000000" font-family="sans-serif" textLength="120.6543" lengthAdjust="spacing">TaskDependency</text>
              <line y2="799.75" style="stroke:#181818;stroke-width:0.5;" x1="344.13" x2="569.4552" y1="799.75"/>
              <ellipse rx="3" fill="none" ry="3" style="stroke:#038048;stroke-width:1;" cx="354.13" cy="813.3984"/>
              <text x="363.13" font-size="14" y="816.7451" fill="#000000" font-family="sans-serif" textLength="88.71" lengthAdjust="spacing">hasId: String</text>
              <ellipse rx="3" fill="none" ry="3" style="stroke:#038048;stroke-width:1;" cx="354.13" cy="829.6953"/>
              <text x="363.13" font-size="14" y="833.042" fill="#000000" font-family="sans-serif" textLength="201.3252" lengthAdjust="spacing">taskRelationshipType: String</text>
              <ellipse rx="3" fill="none" ry="3" style="stroke:#038048;stroke-width:1;" cx="354.13" cy="845.9922"/>
              <text x="363.13" font-size="14" y="849.3389" fill="#000000" font-family="sans-serif" textLength="126.0205" lengthAdjust="spacing">lagTime: Duration</text>
              <line y2="856.6406" style="stroke:#181818;stroke-width:0.5;" x1="344.13" x2="569.4552" y1="856.6406"/>
            </g>
            <!--class Constraint-->
            <g data-source-line="49" id="svg2.entity_Constraint" data-entity="Constraint" class="entity" data-uid="ent0010">
              <rect x="893.15" y="775.9" fill="#F1F1F1" width="207.2891" style="stroke:#181818;stroke-width:0.5;" rx="2.5" height="80.5938" ry="2.5"/>
              <ellipse rx="11" fill="#ADD1B2" ry="11" style="stroke:#181818;stroke-width:1;" cx="956.2525" cy="791.9"/>
              <path fill="#000000" d="M959.2213,797.5406 Q958.6432,797.8375 958.0025,797.9781 Q957.3619,798.1344 956.6588,798.1344 Q954.1588,798.1344 952.8307,796.4938 Q951.5182,794.8375 951.5182,791.7125 Q951.5182,788.5875 952.8307,786.9313 Q954.1588,785.275 956.6588,785.275 Q957.3619,785.275 958.0025,785.4313 Q958.6588,785.5875 959.2213,785.8844 L959.2213,788.6031 Q958.5963,788.025 958.0025,787.7594 Q957.4088,787.4781 956.7838,787.4781 Q955.44,787.4781 954.7525,788.5563 Q954.065,789.6188 954.065,791.7125 Q954.065,793.8063 954.7525,794.8844 Q955.44,795.9469 956.7838,795.9469 Q957.4088,795.9469 958.0025,795.6813 Q958.5963,795.4 959.2213,794.8219 L959.2213,797.5406 Z "/>
              <text x="976.7525" font-size="14" y="796.7467" fill="#000000" font-family="sans-serif" textLength="72.584" lengthAdjust="spacing">Constraint</text>
              <line y2="807.9" style="stroke:#181818;stroke-width:0.5;" x1="894.15" x2="1099.4391" y1="807.9"/>
              <ellipse rx="3" fill="none" ry="3" style="stroke:#038048;stroke-width:1;" cx="904.15" cy="821.5484"/>
              <text x="913.15" font-size="14" y="824.8951" fill="#000000" font-family="sans-serif" textLength="155.791" lengthAdjust="spacing">constraintType: String</text>
              <ellipse rx="3" fill="none" ry="3" style="stroke:#038048;stroke-width:1;" cx="904.15" cy="837.8453"/>
              <text x="913.15" font-size="14" y="841.192" fill="#000000" font-family="sans-serif" textLength="181.2891" lengthAdjust="spacing">constraintDate: DateTime</text>
              <line y2="848.4938" style="stroke:#181818;stroke-width:0.5;" x1="894.15" x2="1099.4391" y1="848.4938"/>
            </g>
            <!--link Project to WorkPackage-->
            <g data-entity-1="Project" data-source-line="55" data-entity-2="WorkPackage" id="svg2.link_Project_WorkPackage" class="link" data-uid="lnk11">
              <path fill="none" id="svg2.Project-WorkPackage" d="M330.79,120.4 C330.79,145.3 330.79,174.06 330.79,196.73" codeLine="55" style="stroke:#181818;stroke-width:1;"/>
              <text x="331.79" font-size="13" y="163.2569" fill="#000000" font-family="sans-serif" textLength="111.3569" lengthAdjust="spacing">hasWorkPackage</text>
              <text x="322.3193" font-size="13" y="140.3123" fill="#000000" font-family="sans-serif" textLength="8.271" lengthAdjust="spacing">1</text>
              <text x="291.9663" font-size="13" y="186.1165" fill="#000000" font-family="sans-serif" textLength="36.5625" lengthAdjust="spacing">many</text>
            </g>
            <!--link WorkPackage to WBS_Element-->
            <g data-entity-1="WorkPackage" data-source-line="56" data-entity-2="WBS_Element" id="svg2.link_WorkPackage_WBS_Element" class="link" data-uid="lnk12">
              <path fill="none" id="svg2.WorkPackage-WBS_Element" d="M362.91,278.15 C381.87,301.56 405.78,331.09 424.73,354.48" codeLine="56" style="stroke:#181818;stroke-width:1;"/>
              <text x="398.79" font-size="13" y="320.8469" fill="#000000" font-family="sans-serif" textLength="53.0029" lengthAdjust="spacing">hasWBS</text>
              <text x="359.4135" font-size="13" y="297.9035" fill="#000000" font-family="sans-serif" textLength="8.271" lengthAdjust="spacing">1</text>
              <text x="380.4851" font-size="13" y="343.5918" fill="#000000" font-family="sans-serif" textLength="36.5625" lengthAdjust="spacing">many</text>
            </g>
            <!--link WorkPackage to Actor-->
            <g data-entity-1="WorkPackage" data-source-line="57" data-entity-2="Actor" id="svg2.link_WorkPackage_Actor" class="link" data-uid="lnk13">
              <path fill="none" id="svg2.WorkPackage-Actor" d="M315.85,278.03 C312.2,287.74 308.34,298.13 304.79,307.78 C299.2,323.02 293.14,339.82 287.87,354.51" codeLine="57" style="stroke:#181818;stroke-width:1;"/>
              <text x="305.79" font-size="13" y="320.8469" fill="#000000" font-family="sans-serif" textLength="73.7598" lengthAdjust="spacing">assignedTo</text>
              <text x="304.8533" font-size="13" y="297.7644" fill="#000000" font-family="sans-serif" textLength="8.271" lengthAdjust="spacing">1</text>
              <text x="251.2676" font-size="13" y="343.6268" fill="#000000" font-family="sans-serif" textLength="36.5625" lengthAdjust="spacing">many</text>
            </g>
            <!--link WBS_Element to Task-->
            <g data-entity-1="WBS_Element" data-source-line="58" data-entity-2="Task" id="svg2.link_WBS_Element_Task" class="link" data-uid="lnk14">
              <path fill="none" id="svg2.WBS_Element-Task" d="M456.79,435.5 C456.79,457.32 456.79,485.37 456.79,512.14" codeLine="58" style="stroke:#181818;stroke-width:1;"/>
              <text x="457.79" font-size="13" y="478.4369" fill="#000000" font-family="sans-serif" textLength="53.187" lengthAdjust="spacing">hasTask</text>
              <text x="448.1497" font-size="13" y="455.5152" fill="#000000" font-family="sans-serif" textLength="8.271" lengthAdjust="spacing">1</text>
              <text x="419.3228" font-size="13" y="501.1864" fill="#000000" font-family="sans-serif" textLength="36.5625" lengthAdjust="spacing">many</text>
            </g>
            <!--link Task to TaskTime-->
            <g data-entity-1="Task" data-source-line="59" data-entity-2="TaskTime" id="svg2.link_Task_TaskTime" class="link" data-uid="lnk15">
              <path fill="none" id="svg2.Task-TaskTime" d="M363.02,613.99 C292.46,627.56 198.66,657.02 142.79,720.75 C129.7,735.69 124,756.92 121.66,775.47" codeLine="59" style="stroke:#181818;stroke-width:1;"/>
              <text x="143.79" font-size="13" y="733.8169" fill="#000000" font-family="sans-serif" textLength="85.4014" lengthAdjust="spacing">hasTaskTime</text>
              <text x="346.9348" font-size="13" y="611.4709" fill="#000000" font-family="sans-serif" textLength="8.271" lengthAdjust="spacing">1</text>
              <text x="113.1824" font-size="13" y="764.8613" fill="#000000" font-family="sans-serif" textLength="8.271" lengthAdjust="spacing">1</text>
            </g>
            <!--link TaskTime to Calendar-->
            <g data-entity-1="TaskTime" data-source-line="60" data-entity-2="Calendar" id="svg2.link_TaskTime_Calendar" class="link" data-uid="lnk16">
              <path fill="none" id="svg2.TaskTime-Calendar" d="M120.79,856.71 C120.79,883.66 120.79,918.46 120.79,941.15" codeLine="60" style="stroke:#181818;stroke-width:1;"/>
              <text x="121.79" font-size="13" y="907.7069" fill="#000000" font-family="sans-serif" textLength="88.2388" lengthAdjust="spacing">usesCalendar</text>
              <text x="112.1737" font-size="13" y="876.4396" fill="#000000" font-family="sans-serif" textLength="8.271" lengthAdjust="spacing">1</text>
              <text x="111.8465" font-size="13" y="930.4355" fill="#000000" font-family="sans-serif" textLength="8.271" lengthAdjust="spacing">1</text>
            </g>
            <!--link Task to Constraint-->
            <g data-entity-1="Task" data-source-line="61" data-entity-2="Constraint" id="svg2.link_Task_Constraint" class="link" data-uid="lnk17">
              <path fill="none" id="svg2.Task-Constraint" d="M550.64,612.87 C644.86,626.44 791.61,656.59 902.79,720.75 C927.04,734.74 949.36,756.61 966.17,775.77" codeLine="61" style="stroke:#181818;stroke-width:1;"/>
              <text x="926.79" font-size="13" y="733.8169" fill="#000000" font-family="sans-serif" textLength="90.3779" lengthAdjust="spacing">hasConstraint</text>
              <text x="558.4484" font-size="13" y="610.246" fill="#000000" font-family="sans-serif" textLength="8.271" lengthAdjust="spacing">1</text>
              <text x="952.4578" font-size="13" y="764.91" fill="#000000" font-family="sans-serif" textLength="8.271" lengthAdjust="spacing">1</text>
            </g>
            <!--link TaskDependency to Task-->
            <g data-entity-1="TaskDependency" data-source-line="64" data-entity-2="Task" id="svg2.link_TaskDependency_Task" class="link" data-uid="lnk18">
              <path fill="none" id="svg2.TaskDependency-to-Task" d="M475.49,767.47 C478.52,757.78 481.19,747.55 482.79,737.75 C485.26,722.65 485.6298,712.6117 483.6498,697.1017" codeLine="64" style="stroke:#181818;stroke-width:1;"/>
              <polygon fill="#181818" style="stroke:#181818;stroke-width:1;" points="482.89,691.15,480.0619,700.5841,483.5232,696.1097,487.9975,699.571,482.89,691.15"/>
              <text x="485.79" font-size="13" y="733.8169" fill="#000000" font-family="sans-serif" textLength="203.9438" lengthAdjust="spacing">predecessorTaskInDependency</text>
              <text x="469.5759" font-size="13" y="756.6395" fill="#000000" font-family="sans-serif" textLength="8.271" lengthAdjust="spacing">1</text>
              <text x="476.662" font-size="13" y="710.9592" fill="#000000" font-family="sans-serif" textLength="8.271" lengthAdjust="spacing">1</text>
            </g>
            <!--link TaskDependency to Task-->
            <g data-entity-1="TaskDependency" data-source-line="65" data-entity-2="Task" id="svg2.link_TaskDependency_Task" class="link" data-uid="lnk19">
              <path fill="none" id="svg2.TaskDependency-to-Task-1" d="M570.68,807.32 C617.93,797.76 668.47,777.97 697.79,737.75 C743.29,675.34 642.0957,639.2682 556.3757,620.1182" codeLine="65" style="stroke:#181818;stroke-width:1;"/>
              <polygon fill="#181818" style="stroke:#181818;stroke-width:1;" points="550.52,618.81,558.4314,624.676,555.3997,619.9001,560.1756,616.8685,550.52,618.81"/>
              <text x="705.79" font-size="13" y="733.8169" fill="#000000" font-family="sans-serif" textLength="188.2588" lengthAdjust="spacing">successorTaskInDependency</text>
              <text x="578.6097" font-size="13" y="803.2911" fill="#000000" font-family="sans-serif" textLength="8.271" lengthAdjust="spacing">1</text>
              <text x="558.3188" font-size="13" y="632.8547" fill="#000000" font-family="sans-serif" textLength="8.271" lengthAdjust="spacing">1</text>
            </g>
            <!--link Task to TaskDependency-->
            <g data-entity-1="Task" data-source-line="66" data-entity-2="TaskDependency" id="svg2.link_Task_TaskDependency" class="link" data-uid="lnk20">
              <path fill="none" id="svg2.Task-TaskDependency" d="M362.86,624.02 C289.72,645.42 206.52,683.02 244.79,737.75 C267.47,770.18 305.26,789.08 342.69,800.07" codeLine="66" style="stroke:#181818;stroke-width:1;"/>
              <text x="245.79" font-size="13" y="733.8169" fill="#000000" font-family="sans-serif" textLength="102.4004" lengthAdjust="spacing">hasPredecessor</text>
              <text x="347.0672" font-size="13" y="638.4798" fill="#000000" font-family="sans-serif" textLength="8.271" lengthAdjust="spacing">1</text>
              <text x="312.0372" font-size="13" y="795.7013" fill="#000000" font-family="sans-serif" textLength="23.0356" lengthAdjust="spacing">0..*</text>
            </g>
            <!--link Task to TaskDependency-->
            <g data-entity-1="Task" data-source-line="67" data-entity-2="TaskDependency" id="svg2.link_Task_TaskDependency" class="link" data-uid="lnk21">
              <path fill="none" id="svg2.Task-TaskDependency-1" d="M396,691.21 C391.47,700.86 387.58,710.8 384.79,720.75 C380.06,737.62 386.4,753.7 397,767.66" codeLine="67" style="stroke:#181818;stroke-width:1;"/>
              <text x="385.79" font-size="13" y="733.8169" fill="#000000" font-family="sans-serif" textLength="88.6069" lengthAdjust="spacing">hasSuccessor</text>
              <text x="383.05" font-size="13" y="710.7202" fill="#000000" font-family="sans-serif" textLength="8.271" lengthAdjust="spacing">1</text>
              <text x="363.977" font-size="13" y="756.8563" fill="#000000" font-family="sans-serif" textLength="23.0356" lengthAdjust="spacing">0..*</text>
            </g>
            <!--SRC=[bLDDJuD04BtpApPSccZQs2i7avOQquDAf4cFPbmcTEsoItQtCSJutzs50WksjLw0UJFlpISJ4dFG6dL0tPiaIduWDUGh8EHs1tgTHIGrYedy23n3WJvKDeGO3EPILITSBvy2LOT_1yTCMwds2T0zv7Xbjewwe4Qg_vAso_JjWME1ujYT0sAPuLNi3UZz-OoFNBu3_tDM5bgXfegLXadXUuoLJnIJYXaxGYQC0vcEhSqeS9Sz8aifEO9eN4-CepPIu00lMlHy5njM70TUSX02izI0CYkxluYuf_CxhwOxp0uSLmS5JRdjLwyN0qUHWTl58CSAIukZeDMPcRb-Nv7NSdh7oarL3YR58NTrdCnf6KO1QzT8Etiiqdj6tLcj2LbeBIbhAWZQim_d8PbEILY0gCB1YKR4Dk41WUySqRnBQsZBz49uSyqHiSsntEvZ8mDVOHXSts4jwhw2scmZvc6_u2waRhY3lT1kTn4vsF-_DNz9UlEkHNlRJN6qRUNjL0SZPoDwtnLgzKg56LAqgr0EMOi-_0gsFj0BtAw9kzdi9XnNMlUIzEclfQHjpXy0]-->
          </g>
        </svg>
      </g>
    </g>
  </g>
</svg>
